<mxfile host="65bd71144e">
    <diagram id="hrknW3aXpZ8VwaMPN1G6" name="Page-1">
        <mxGraphModel dx="1072" dy="480" grid="1" gridSize="10" guides="1" tooltips="1" connect="1" arrows="1" fold="1" page="1" pageScale="1" pageWidth="850" pageHeight="1100" math="0" shadow="0">
            <root>
                <mxCell id="0"/>
                <mxCell id="1" parent="0"/>
                <mxCell id="3" value="" style="shape=image;verticalLabelPosition=bottom;labelBackgroundColor=default;verticalAlign=top;aspect=fixed;imageAspect=0;image=data:image/png,iVBORw0KGgoAAAANSUhEUgAAA8kAAAIMCAIAAABJ/Hl9AAAABmJLR0QA/wD/AP+gvaeTAAAgAElEQVR4nOzdf1Bb550/+s9BIAPmh80P2wRTmyKRGuRJjWs7KznOjzpJhd2U23RJZ9pcutuMlNuvt9LuXm6zG1LHN/a3yXjalWY8O4bx9htm095E3WxpaqSZkK9pYqNvHDc0vsH4FokSb2xjTIyNSUBIOnruH0c/jqQjhLHgSPB+/ZERj57znI9AwW89POc5HGOMAAAAAADgrmXJXQAAAAAAwDKBbA0AAAAAkBrI1gAAAAAAqYFsDQAAAACQGsjWAAAAAACpgWwNAAAAAJAayNYAAAAAAKmBbA0AAAAAkBrI1gAAAAAAqZEtdwEAsHJNT0+fO3du4tbtLI5T4JO+fPgABVhgbXHxzp078vPz5S4HACCDcbjnOQDI4uzZs9fGrvuUhV9kF/sUeTyXRcTJXdTKxBQskMPPrPZPZnunKtav37Vrp9wlAQBkKmRrAJDB2z3vTM/6JvKrfFmr5K4FInICnpLpTwtyV+3d+3W5awEAyEj4KywALLX3339/2uMdX12NYJ1ufFm546urP/fMnj17Vu5aAAAyErI1ACyp6enpsevjE6u/FOAUctcCEgJc9s38qmtj16enp+WuBQAg82BNCAAsqXfffXd8ht3IrRQ3/ttPfUkPLNmg3P2tT4pKylfl4WK7RVc6c7k8P+vBBx+UuxAAgAyDfUIAYElN3Lr9xeqNMY21X12TlUUcxxERCZ/3OSIW/G+AMcaoYI3iwrkz9Tt2l1duWuqiV55p5ZqJW5flrgIAIPMgWwPAksriyKfIjWlsfnbdE3XZRBRgwn5wxAcYHyA/Iz9P/gDz+qn3z9Ov/eKSR9MgR9UrzmxWbjF2bQEAuHPI1gCwpBRZHB+30ppjbGra/1/Xp308UyiyilfnjN70+PystDhvdGJm1sdUlUW8z7/YtR098N3hC/3He4cW+0Sy8Ny+MXllWPKp4sqa3KJScUuAUyiyEK4BAO4YsjUALL3Y0BZgjGfk8QVmvXx2tiJXmT0zG5j1swJf4IvZgHfWNzUz4/N6Zak1qV/9/IXTJ9848PIJza49ctcyl1Wri68P/ck3PRXTnpNXUKbeFtcdwRoAYCGwTwgAyC/A83yAfP7ArJ95fX4vz2Z9bNbrn/WzWW/A6/N6Zv28P/n1jjAHTpF9z1ZdfPs99z2gyM5Z+noAAJYlzFsDgPx4PiAssOYDxHHBNdZ+nnw8+QPkD5CfJ7+fT3T4sw/XElFNfcPwhX4iaj7w/CNPtgycfe/Yc888sP+p+3Y/euy5Z4SVHkJPwUuv9ZRXbhq/cumF7z8aM6DQWFPf0HrsdRKtFRHGFPoIz556s/P0yTeISGhPdBZhbltoeWD/U9/7x5fu/pu2AKXV9eOuP01PjIVb8teuK91cJ0sxAADLEuatAUB+Ab+fDxDPiA8QH2A+xvzBVB1+QAF/kvXWP/inV473DtXUN9iOHRk4+57QeHXEJaTe8SuXnn24tqa+4XjvkNDthe8/+uf+/yUE63DjHOMLwTo8gtD4yJMtD+x/iogOvHzieO+Q5Fne+qXl9Mk3mg88f7x36KXXeu7+27VwHFe57SFxQ+W2h4jD8g8AgJRBtgYA+QV4v48nH08+nvf5A34/eXny8wGvP+DnA36e+XjGJ8vWwt582x/WE9H1yyPhdiHmfvz+H8LPhh/8oes1Imo+8Px8ijx/poeI9E//SPhSmNKOIXmW/6//fxHRh70OoUi5Jq0Fheuq1mxUCY/XVKkL139JxmIAAJYfZGsAkJ/fx/sCNOP1e2dnPbPeGY/HOzvr9c7OzHi8vlm/z+/jGZ94TYjYuo3VRDT6iVv48p5q9VzdLv0l/HgxCCOXrLuHiIYv9D/7cO2zD9eeerNzkU43T5XbHuKyFFxW1j33pfXFlwAAmQjZGgDk5/fzfj+/SsHnKAKKLN7v82Zn8TkK5vd5s7MC2TlZfIAYP69sLcxYV2xWzavbpi9T9CR3agkjf7n+q8LcubB6RJjAltGqgjXl6q+W1zbkFq6VtxIAgOUH2RoA5Of3+XJysjaUFWwoKypbW5iXl7uurHBdaWH+6rx1ZUXryoo5hZIFAvMZynbsCBFtvf+hmPZHnmwhUa4VHjzU9H1xo3ApJIWWl4S/FB7ct/tRInL8+78Kjb/6+QvCAyHHCzFa8ix/Gfxo/MolInrsu89Q4qn0pbRB81cb6u+XuwoAgGUI+4QAgPw+m5ixOz/lhe1CGGMBYowFmPCYY8SIaGZ6du5BwrtzCFtzjF2+FNPheO+QsCpD3K35wPO2Y0didhohovh2za49B14+cey5Z8KNQs9Hnmz5sNdhO3bEduyIMD8dc5a3Xz8R3oqkpr5B3vXWgmxl7K0xAQAgJTjGmNw1AMAKcvLkySsF98Y0jl+5dOHcGWFydw7llZvqd+wWJpXFhCC7XO+nKJfKz/+8f/9+uasAAMgwmLcGAPkVlZTX79jt0cy1BR4R5eblF5WUL01JAAAAC4BsDQDyW5WXHz8bPX+YsQYAgDSBaxkBAAAAAFID2RoAAAAAIDWQrQEAAAAAUgPrrQFgqVV+/me5SwAAAFgUyNYAsKQ+/PDDgwcPyl0FJHfo0CHswQcAcKewJgQAAAAAIDWQrQEAAAAAUgPZGgAAAAAgNZCtASAtfPFJ6xd/eZb3TzPG5K4FAABggXAtIwDI74uhh5QKH8um2f9XPfuldwvXbM7Oxm8nAADIPJi3BgCZea515JZ/hfJyOaUmN6fg82HT7du35569drvdOp0utWUsxpgAALDSIFsDgMy4rDwWuKVQkOKLs+T3z3xxe3JyMhAIhDukW+SdZwrnQoTHVqtVfLhOp+OihTsAAEDmQrYGAJmtWvf0F2OXArNfsM+npjxTH99oEfJoWF9fn1y13Q2Xy6XVaoUJeK1Wa7PZ3G53+Nm+vj7GWLgPY8xkMslXLAAApAayNQCkgYIfcIpVM59PDIzt2nDPluLi4qysyG+n8CSx2+0WpnjVanWikcRTwg6HQ2gxGo1CXg+PEI7v8WOKTxd+HD7K4XC0tLQ4nU5hpjl+wETa2tqOHj26gO8NAABkEGRrAJCfUqkkjnjKnlT+H5s2bSosLJSMqmq12m63C9O9iYZyOp2dnZ2MMbvd3tjYKLQ0NTUJ88fhESwWi9FonOeYOp1O6MMY0+v1nZ2dwmSzyWSKHzARvV5PRELcBwCA5QrZGgDkJyTpLDazdk1BYWFhok1CtFqtkFDnoNVqVSoVhbKs2+0WHxV+vG/fvo6OjnmOGR5tjpLCA86htbX18OHDSc8FAACZC9kaANIF47LYst4YVKVSNTc3d3d3y10IAAAsFmRrAJBf7vofzNwavcU15OXlKRSKRN2cTqdwOeB84qnD4QjPYYtHEFZldHd3GwwGyTGdTqfwQHyWmLUc4T7xA87NZDKZzeak3QAAIEMt5ykiAMggfOU5f+6NDXl5SqUyUR+73S5ccThHihWuMhQex2+S7XK5wtcsCs/Gj2mxWIQRwi2dnZ3ho+x2u16vNxgMHMdZLJb4AcOEdo7jYtrtdjtWhgAALFexv/QBABbVoUOHDh48uHjj63S6DN2zL90s9k8KAGBZwpoQAMhgXByPxyN3UQAAsHJhTQgAZDD85Q0AANIK5q0BAAAAAFID2RoAAAAAIDWQrQEAAAAAUgPZGgAAAAAgNZCtAQAAAABSA9kaAAAAACA1kK0BAAAAAFID2RoAAAAAIDWQrQEAAAAAUgPZGgDSwtjt2y/b7ddu3fL5fHLXAgAAsEDI1gAgv9HJyf/46KNnHn/8xNmzf7l61ev1pnBwnc7qTuFwMnNbdRxndMynK8ctq1cOAJARkK0BQGajk5O/PX/+b/fsKVMoTHv3vjo4ODw6mtp4vUBuqyiXi79wW3VRwVXHhUXHWYcx8ozREZXyowaPHTPRgG5ri1ljZ+366KGFPuGWYPRmdo25BekaAGBJZc+/6/T09Llz5yZu3c7iOAUyebriAxRggbXFxTt37sjPz5e7HIAkroaCdR4RERUqFK2PPXaop8dIpKqoUCqVchan2tdMLd1uk0lF5O62UXOnioiExwYD2YJPEZHW4uozqYjIbdWpjbWsXS88NGvsjOmJiMhhNDZSXcJzxYwpNSCR46iZLC596BiDPdgujN9Idsb0whEO1q4nfavlsPqowxTpBLB8IaWsBBkRcuabrc+ePXtt7LpPWfjF6o0+RR7PZRFxi1oZLAhTsEAOP8N7Jt9+539WrF+/a9dOuUsCmMurZ84YvvGNPFFLiULxnW3bfn32rCk/v7y8nIh0OmuzxmzuIArHSbdVpzY7RQ06nVFDHR1OMthddYfVZqc4eA4e1XEdTgon1tCABjtr10eGCufZMFG4dg1Sc2skWjd3Ng2qD0fCdfiIWg0NCg+7bWRxRWKtvr1dq7Mm+j4kHFM0IDm6OrTNLpXkANTVYWhqDxattQ25Sa8SPwRY1pBSVobMCDnz+mT3ds87o+MTNwqqb+RWerILeE6Bt2y64nhO4ckuuJFbOVGweXT8s3fe+Z9ylwQwlx/qdCdOnZri+XDLhRs3uk6ffqSgYGZmJtjkNA82McYYsxs6DlvdREZhQpgxl2WgUVgB4Ryo62TMbuhobKHOSM/IU4y5LBRcIxEcsF1PZFQPtjHGGGOuZlvcCgpVrcY56CIiR1eHplYUrfep9E0Gp607dsWFo6tDW6cmIiKbM3REmNOsDq/jCAZ6SjKmaED30IC2eZ9oyI5GiWUooqKjHgIsW0gpK0ZmhJzk2fr999+f9njHV1f7slYtQUGQKr6s3PHV1Z97Zs+ePSt3LQAJlRYUfPvee3/W0zPB80R04caNE6dOPZKXV1paWlhYGOyktbQK07/qOi0REQ2EWlT7mrUdXQ4iElKnuk4bfhA+RyiQqvY1a4WkGR6QaCCUUDm12RmfQ/VNho4uB7mHBgxNwiHBGEwkDsLh0Hy4LjL3HcrEEVqLi4W4LJEK48eUHDC6svbgQHOuqlbXaQeGsOQaljGklJUpnUNOkmw9PT09dn18YvWXApxiaQqCFApw2Tfzq66NXZ+enpa7FgBp2dnZmzdseHrLlkM9PafHxn7Z27s3P3/jxo1VVVVFRUVLUYE477L4lcn6JsPAkKPbpolEa2cw+DZ2UChcC4O4LFpROtdITGtLkxhTasAExB8jhOGGBsKx3jUYP3sOsGwgpaxkaRtykqy3PnfunE9ZGPNZ8N9+mnz32ZINyt3f+qSopHxVXpquNF8hvFm5vpyCc+fOPfjgg3LXAiBNqVTWVFQYif6fDz7YV1JSVla2cePG4uJihSLhP5Yap1m4RM/dbXMa2vREh+dxIsnO4aES0TdpGhvNBjuLjBFeye0wcoe73SZTsKvK1Gc3cpxReL7VQurIZYjkMBqd0tcySoy5TmpAVa3GGV6O7TAaqb1dLxytaVNRraGjy9Gu14cbiIIxu3Ue3xuAjISUssKlZ8hJkq0nbt3+YvXGmMbar67JyiKO44iIhH9uOCIW/G+AMcaoYI3iwrkz9Tt2l1duWoy6Yf6mlWsmbl2WuwqAuSiVSlVFxY/z8z0eT0FBQVFR0RzBmojaXRadWvgdZLCzZLtgOM1qzkwkXKwY21k0lNTVjESkbzIQiRaEWDr1oqcaD3e7TaLOwng6i6vPZOpzUWRsMti1NCRRntSYHeuaJQYMnc6kIlLXDYSGDn4L2u1dXMz3RByzAZYhpBRIw5DDMcbmePp3b/1+vFDFc1ERvGJd9RN12UQUYMJmKMQHGB8gPyM/T/4A8/qp98/Tr/3i7+5//H+rUm1Z3FcAyWQx/7op97ee+KbchQAQER06dOjgwYNyV5Gp3FaderBNYumKJIcx8XLt5PCTgvSHlAJpGHKSzFsrsjg+bg0Tx9jUtP+/rk/7eKZQZBWvzhm96fH5WWlx3ujEzKyPqSqLeJ9/viWcfeHZ596g/SeO/+OeBbyAtHHp1IFHbRcajve+vgQn89y+MXllWPKp4sqa3KJScUuAUyiycMU0wHKgMnVadOrQIpEkuMYBi6sds9awjC1FSpHHkoaKeUDIuQPz2d86tuIAYzwjjy8w6+WzsxW5yuyZ2cCsnxX4Al/MBryzvqmZGd+C7qk2/uZ3XzjWv4CcPfDz2mMn6YGXh763awGnldPCKl+1uvj60J9801Mx7Tl5BWXqbXHd0+s9BwB3QWXqY6bk3YiIGOtb3FoA0sLSpRS4Uysz5CzkzkUBnucD5PMHZv3M6/N7eTbrY7Ne/6yfzXoDXp/XM+vn/cmvJIhX/uTrx3uHMnwCeylwiux7turi2++57wFFds7S1wMAAJAmFi+lwNLI9JBzB/c8D+P5gLB0iQ8QxwVXL/l58vHkD5A/QH6e/H4+4fHCIhBB/fMvPR33VHje+krn0e8fCf5VQGgUWuqfeoDeOH2BiKjmQM8P6CfHThIRnX6u9jTR8d4hiQMTeu9XDz9zmhpq6vuHQwO2PrkpUsnunmefowO9L2mCPQUNza+9/khldIVhwSKff+lYS3nMn1GiX/vfPeyIrVzyLFJKq+vHXX+anhgLt+SvXVe6OfEdlQEAAFaAu0spC08F9LNa24XQHG0oCRw/1iKdSZI2SlQVOdcjl+PrSfHLQchZsAXNW/v9fIB4RnyA+ADzMeYPvl/DDyjgT7CSSfi+1z//Uu/Q8d4TD8xxGuGHt//E8d6hlw400Mlnjr55KfjUBVfFPwUPHz52ovzJ1w/sJyJ64OWhSLCWPDCx7f80dLy3p7meho89+qvwNuQj/3pUeJdc6Tz68DOng2X3NNf3277/3VMfCO+5pw4EG5OdI+61r4uvPP4sVxKMxnGV2x4SN1Rue4i4tPvLCAAAwFK6q5QSsoBUcL22gYiuXr5EROPvO4aJah5+SDqTzNEYHyrmyAbhepJByFlKC1sT4vfx5OPJx/M+f8DvJy9Pfj7g9Qf8fMDPMx/P+ATv2oEzbxDRA0+3lBMR7fneMeGBVM/XjwwTPbB7DxGVb1QT0fAnoYhcr99aSUSbKuqJKPa+CnMdmJB6XSURbdr6cOR/DCIi0v+gd+h470vrQ/+TlFO4W7/DcnyYqObAMwk+LN7xax+XOsuH7ycsvnBd1ZqNweuU1lSpC9d/aX6FAAAALFt3k1JCFpIKPqW6GqLh3j+ME4190k/UsP3+TZKZRLIxmAHiQsWc2SBYT7IcgpCzpBayJsTv430BmvH6vbOz/ixuxuPxzs76/L6ZGYXXN8v7/D6e8XOsCbkTwt8RgkZG7uLAea3hLt+oJuof/uQSCdtlVldLRn+h29ToDSK6Z+NibY0ZKYYSnqJy20OTV0eI2D33YZE6AABAKlPKHaWCYV91cz0NX3CP0XvnTwbnAYU1DbGZpFqicYz6aR6hIniuS5fmqCclLwchZ8EWlK39vN/Pr1LwTBEgjvw+b3YWTwrm93mzswJcThYfIManJlvHXlt6pXOBB87P+GUXEdVsTvJOEroVVpROjd64evkS7VqUd958illVsKZc/VXiuNzCtYtRAwAAQGZJYUq5o1RQs3nP1s0NtgtvnH9TdTU0QStk65hMMvDzI/GN4286iPqThorguTZtGr4+Op+XsOCXg5CzYAtZE+L3+XJysjaUFWwoKypbW5iXl7uurHBdaWH+6rx1ZUXryoo5hZIFApLHanY/RUSn/71znIjo0qmfCw+ken73+ZpIT6IrnUd//l6iktZvjvyZ444OjPbe28eCf8SJeaL8yR89EPpDD9Glj3v7iRr05mdrRI2jF0K9K6vvIaIL7rHodsnXLq5c8izxxcTYoPmrDfX3z+8FAgAALHN3k1Ki3Vkq2H7/pvL79TVEp48dGQ4dJZlJJBuFY+NDxcKywd2/HIScBVvIvPVnEzN256e8cCEuYyxAjLEAEx5zjBgRzUzPSh+866XjL9Ozzx154eEjRET1z2/dneA0lS2tr9HR74d6EtH+E4lKKn/ylebeR23HHn32GB3vHZr/gSFvHHtYuBogdNVq7O0z93yv9wQ9/ExozGC3rQccLxwTTtRQU08UfIfteexAw+ljwpii9vjXHle55Fnmlq3MTfbqAAAAVoq7SilBC0wFRA9trz8yfCF8YViCMJOg8QcJQoXEuS6/YLuDbwlCzpJKcs/zkydPXim4N6Zx/MqlC+fOjF9JcoFgeeWm+h27yysXa6VOigjbwTyVeP+a5aDy8z/v379f7ioAiHAn7cyBnxSkv0VIKcssFSyzlyMt3ULOQuati0rK63fs9mga5u6Wm5dfVHJHi+wXTcINIxuO9/5oyasBAAljt2//jzNnfqDVlq5enZOTAXcHAID0lHkp5e4lzDk012bHsDgWkq1X5eWn/Wx0tMqW1t6WRE9+r3foe0tZDADEGZ2c/M/z5595/PHj77zz11/5SnVFhVKplLuozOK26tRmjZ2165N25TidxdVnUi1BVQAyuLuUsicjU8HcOWcpK4GFXcsIAJBCo5OTvz1//m/37ClTKEx79746ODg8Our1eu9gCLdVp7O6U1FM8nGizhVzYrdVx3GhBh0XFj2owxh5xuiIPWns+FFHJxrTbW0JBmu3VRfbI3w+o4OIiJhdY25JzbcLAABiIFsDgJyuTk7+5/nzf7NnTx4RERUqFK2PPXb84kX3ncbrFOlLOp+r2tdMtm4hmbq7bdS8L3yAu9tGBkP4Wa3FxRhjjLmabepgrnVbdVwj2VmQnbocc5wrZsAEYxI5jprJ0qonInINaoKjBxO0wxg8n8sy0CgcoW+1kPnoXCcGAIAFQrYGADm9eubMUzpdnqilRKH4zrZtvz5/fnJyMtQWmek1OiRmZq0tZqfTrBa+jjyts7pJ3DvYPdISzKY6ndVqDH4ZnjOWmP8NEoVr12BstG5ubdI4RVlYOKI2fBVRt40srsi6DX37XGs4Eg4YPSY5ujq0oToiI6rrtEREXR2GJn2wbu3AkDvmIQAApFTy9daVn/95CeoAgJXphzrdiVOn/tsjjxQqFELLhRs3uk6f3ldSMjMzI7RYdY1kZywSSPuYiYiIHEbuqMPUrjd1Wmwt1NlnUhEZucE2oa/bqmuxvuU0a+ysTy98SURkVAdb3Fad2uhg7XpymgfbGGsnIjocOonKFHuWcM2qWo2zy0WkcnR1aJraQ83ubhs1d6r0tYbGw91ukynyIh1dHdq6ViIisjk1bfET406zmjNHvtRaJAeMOk40pntoQNvcGjtq8GgajK876iFAZkNKgXSTJFt/+OGH2INpGTh06FBabU8DEFZaUPDte+/9WU/P//nooyUKxYUbN06cOrU3P7+0tLSwsFDoYyNLp3h2123Vqc1O4bG2zk16cUIcoI4OriP0lYG0lpiZ4QFtcDTVvmatucvRridtcD1FlDnOom8yNHY52tVDA4a4aE2kahKycCQxa0WXDmrr1PHfBXGH0GeA+AFNKpIeU4LDqLY1u/oSdlDXaQeGYr51ABkHKQUo/UIO1oQAgJyys7M3b9jw9JYth3p6To+N/bK3d29+/saNG6uqqoqKiiQP0altzcKiY5dFG/90eEUyY8G56AWZ8yz6JsPAkKPbpmkKZ3J3t01Yl8JxjR3ktHW7g5W4LFrnoCvUTXJ9hySJAcOvLnrMOA4jd7guPnq7hwbCyd416NTUIlgDAKQcsjUAyEypVNZUVBi3bHn7gw/2lZRUVVVVVVUVFxcrQqtEmmMuvAutLXZ325zhxlDW1DijOhvismy4g7vb5jQ0JVzuLHmWEH2TxtxojonWhsgliqLTqkx9dmoMre1utZA5cg0iOYzGBJcUJh4wbkxVrSixu6266GDdZOjoCr/eUJ4Wx2wAAEghZGsAkJ9SqVRVVPz4/vvVanVMsCYiU6dloDFy+WGbRpjN5VoGNcEZZZWpzdDRyHE6q7vdFenM6ayt9lDv0AKPcAe1WWNPfCWhxFnE9E0GMkRFaxItLNE3GZy26+EsrBfOqbO6SWXqExfYSAnCvdSAUR8SRGOKn3V325wUnO4WLsPUt9sp9vWKYzYAAKRSknueS97zljE2e+XSZyd/w2Vnl+xrzqtIdjN4kBvuXQzpQ7Z3o8PIdTXN59Yqmcht1akH2+b76hKsGYmB3xuQ/pBSgNLvl9VC5q1nr10d/82/+T/98+yFDz/9l5c+/+x6yssCAEiJyO59jTTHLHWmUwlz+4kWmETjGgcsnbgtIyxbSCkgr4Vk68n3/1BUsU6xpiR7dZHC7br01ptJDpj3LdNSdWc1AACBvj1yXeOyTdZEwp6B83yJjOGG57CcLV5KWVxpUgbctYVka2XZutmJz+jWBI1e8QT4W1l8IBAIP3v374w7G2F+70XxrSKibiHstup01r8T3UdY8l4RAAAAkBEWO6WkibmDjZvIimwjk4Vk68L7dn4+7Vd4vb7bn1+p+vLqBp342eR3DE7m7keQGNNl0WotLmFWR2vQ2FrEbzBTX2inrdDuXZjVAQAAyESLnVLSxNzBhpBt5LOQbJ1dVFy046HcQOBqXmHBk0+rvqzOyoqME/lEGL5lcPj+CxKibmWccAROZ3WH70sc1Tlyr+O/+zvdfD+Y1bW2aaL39AIAAIDlIIUpRaczGnVRwSMURYwO8QihVKKLxBOHkTM6omNM1EnjW8JlxA8rPqk0BJs0ssA9+LI4UnAcV1ZeW1dfUFAg2Ue4sXDC+zsQUfhWxgnWQhrVg23Cc65mW4vV7TQPNgW3eu04HHxPmjqDH8g0x7xRned+Afp2OzXO77IfAAAAyCSpSinkHKjrDAUPITUEo0i7XjSCyzIgPNkW2k6eHF0dhqaumBgTH2ykyogfVnzShBBs0sYCszVH5Gcsa3qa+byJ+gxI3kY4WtQGrvEjUEdj+MOcc/B6eEB1Xfz/BjGdE9+xLEjfahk4jJVHAAAAy02qUkr4HlKkbzLQwJCbSHRUeATVvmZtR5eDSB+6V5Oja8DSqo9PJhItcWXED0vzKVEMlBsAACAASURBVBXBJm0sMFszFshVZFHeKlIqU1tQlOh7Fyf8WCnVOfmbUGXqbLYd7U5RqQAAAJAeliilxNO3Wga6HOToGmjep5JKJneaVe4Igk16WGC2zt2svly2kRp25+bmJeqjibpPmLTYWxnHjjC/tUPOQdf8O4uoTG1knmMtOAAAAGSeVKWUCEdXR3gOOzJCMHi4u23O4H1aVfuaB7qMwWgdn0ykWmLLkBp2vhBs0sECs3X+pi9X/uif6594Mjc3N1Gf9tCthqXvGExEcbcyjh0h+t7F0n/mCN3reODAgTk669TCJY8xJ9G32w1JXioAAABklFSlFHIKXTiukexxu2yEU4rarAnfmkq1r3mgg9pMKpKKMRItcWVIDhsPwSZtLeSe55Bx8HOE9IF3Y6bATwrS32K/S3U6ayc2rkt76fbLaoHz1gsS2W4v2Vw0AKw4Y7dvv2y3X7t1y+fzyV0LAKxAEinFiZQCd24ps7Xo3sNB+DC4dOb+AwWAvEYnJ//jo4+eefzxE2fP/uXqVa834aX9K4bbqptzN1sRzFPACsQYe++991I6pERKYWPIKXDHljJbg5y+9rWvvfXWW4kS9osvvvjiiy8ubUUAQaOTk789f/5v9+wpUyhMe/e+Ojg4PDqawnid/BbHoVsEx33htkbdSph0if7sJp7wMjqizhg1eOyYiQZ0W1vMGrtoFwGHMfK8I+YmWsyuMSfd1B8go8zxrxJj7K233vra177293//90tbFMC8IFuvFK+88srhw4fvu+++3/zmN5jDhsUj/hdxPp/Zrk5O/uf583+zZ49wMX+hQtH62GPHL150py5eJ7/FsWpfMwUv1Sd3t41CuwG4u21kMISfItH+Wa5mmzoYbd1WHRe5CxazU9dcF+nHjCk1IJHjqDmy+b/bquO4xo7QAA5j8GSR+0roWy1z7rmUEnf6kwVYDO+8886uXbva2tqee+65P/7xj3KXAyAB2Xql2Lt37wcffPCLX/zi6NGjSNiQPl49c+YpnU68S1aJQvGdbdt+ff785OSk0DLv2w6Hp3Yj08hGR2jeOu42wiKicO0ajIrWza1N4S2yoo6o1YQedtvI4orMMOvb59qMP+GYogFjdvtSmfrE943r6ojs9aUdGHLHPARYpt55552dO3f+wz/8Q2tr6/nz5//6r/+a4zi5iwKQgGy9siBhQ7r5oU534tSpKZ4Pt1y4caPr9OlHCgpmZmaCTUluOxx7D2GrLjKNHM68ErcRFlHVaoTbuTq6OjS1omi9T6VvMkiEa0dXh7ZOTURENmfoiLDwvl0cx6nFe80mHlM0oHtoIG4jXSnhoqMeAiw3SNWQWZCtV6K9e/eePXv28OHDL7/88tzrsAEWW2lBwbfvvfdnPT0TPE9EF27cOHHq1CN5eaWlpYWFhcFOc992OO4ewjaSuD+wxG2ExYK3KnYPDYRu1RBeHCIOwuHQfLjOFV5qEsrEEeJbr4mmnCXGlBxwAdR1mLiGZUZYV719+/af/OQnbW1tSNWQKbLlLgCWyBy/j771rW8JDw4dOrRU5cAyJ34vxbyvYtbpZmdnb96w4WnGDvX0fGfbtq7Tp/fm52/cuLGqqqqoqGheJ9NaYlLp4YWUrG8yHB5ydNs0TX1EJNwRzelUc+bgSbrdJpMqeC63VacedBEJJ9U4bcKTScWPKTngfLmHBrR1rcJj16BT05TyDQ3if2/M8ZMFWDzhf6diYN0/pCHMW68U4l2Fenp6duzYsXXrVpvNFggEGGMHDx48ePBg7O5DAHdO/F6SfF/FvzmVSmVNRYVxy5a3P/hgX0lJVVVVVVVVcXGxQqGI7TrnbYfDmqUu7Et6G2F9k8bcaNZEZq2dhsj1idFLOFSmPjs1htZtt1rIHLkMkRxGY4JrGROPGT2gqlZyiXeQMMEeHC68fmVoIH72/O7d0U8WIIXE77H4f7PCUv6eB7h7yNYrC1atQXpSKpWqioof33+/Wq2WCNbzu+1w+GpGU2ekJZx5k99GWN9kIPGCENHCkvj10XphPJ3VTSpTn7iERmqSvpZRaszrbokBY07ntuq44M2NOaOD9O12in0h4pgNsNzgSiHILAtZE8IYm71y6bOTv+Gys0v2NedVVKa8LEi5d95555//+Z89Hs8LL7zwne98B5Ea0o1SqSwvL5d+Lm7VR1+fKfKFytTHTFH9Y1r0JulusfTtLJR8Vaa+PomnTKLziseLG1uU3cNDSY3ZLl21vtVyWH3UYWrXSw7ezpj4QGHLPpfU5wWAZWPv3r179+4V/i176aWXhH/LJHsipYC8FpKtZ69dHf/Nv/GfjQamPZ8O/fme/+v/Lihbl/LKILV+8pOfHDx48Jvf/CZSNSwq8fJHLIVcMJWp06JTc0bx7WMS4hoHLK72xZ61xk8W0sHevXu//vWv//73vz906NDLL7/8xBNPxPdBSgF5LWRNyOT7fyiqWKdYU5K9ukjhdl166825+7vdbp1Ot6DylnTM5e2Pf/zjE088kShY404QkM6S3/xlGVKZ+th8gjURMbYSv0GwvM3xrxLHcU888cQf//jHf/mXf5HsgJQC8lpItlaWrZud+IxuTdDoFU+Av5XFBwKB8LPp9maa5/s7vBet8NhqtYoP1+lEdybmOHGHTIHpagAAWDY4jtuzZ4/kU0gpmZhSlpOFZOvC+3Z+Pu1XeL2+259fqfry6oao90Rf9IrCTOFyubRarXB5hFartdlsbnfkwqW+vj7GWLgPY8xkmnvhJgAAAMgAKQUpRV4LydbZRcVFOx7KDQSu5hUWPPm06svqrKzIOOGPX263O3g/B3XCnaHEH7YcDofQYjQahU9m4RHCc67xY4pPF34cPsrhcLS0tDidTuEzXPyAibS1tR09enQB3xwAAACQEVIKyGuBe/BlcaTgOK6svLauvqCgQLKPWq222+3CB6lE4zidzs7OTsaY3W5vbGwUWpqamoRPZuERLBaL0Wic55g6nU7owxjT6/WdnZ3CxziTyRQ/YCJ6vZ6IhP+RAAAAIIMgpYCMFpitOSI/Y1nT08znTdRHq9UKP/s5aLValUpFoXeJ2+0WHxV+vG/fvo6OjnmOGR5tjpLCA86htbX18OEF3d8NAAAA5IOUAjJa4D3PGQvkKrIoL5uUytQWlD5UKlVzc3N3d7fchQAAAMAdQEoBGS1w3jp3s/py2UZq2J2bm5eoj9PpFBbaz+cH73A4wp8OxSMIf+/o7u42GAySYzqdwbsLi88S81eScJ/4AedmMpnMZnPSbgAAAJA+kFJARguct87f9OXKH/3zBp7Pzc1N1Mdutwtr+ed4fwjr94XH8bcwdblc4asBhGfjx7RYLMII4ZbOzs7wUXa7Xa/XGwwGjuMsFkv8gGFCO8dxMe12ux1/cwEAAMggSCkgo9gfUoxDhw4dPHhw8U6v0+kydDeczLLYP0eA+cO7MVPgJwXpDykFKP1+WS1wTcjCcHE8Hs9SFgAAaWvs9u2X7fZrt275fD65awGAlQgpBVJiSbM1i/Phhx8uZQEAkJ5GJyf/46OPnnn88RNnz/7l6lWvN+Gl/ZJ0Oqs7ea905rbqOM443+20OC7jXzBAGkJKgZRY0mwNABBvdHLyt+fP/+2ePWUKhWnv3lcHB4dHR+80Xt8Bt1WUxcVfuK26qNQquolwdJZ1GCPPGIXbSYiejx0/+Zhua4tZY2ft+vAR0T3C5wumb2bXmFuQrgEA0hGyNQDI6erk5H+eP/83e/YIF/MXKhStjz12/OJF9+LFa9W+ZrJ1C8nU3W2j5n2q8GODIfwUEWktLmHyytVsUwdzrduq4xrJHprWslPXXLPN8xrTcdRMltbQfreuQU1w9GCCdhiD53NZBhqFI/StFjIfxV0jAADST5J9QrZv337y5MmlKQUWz/bt2+UuAUDaq2fOGL7xDfEuWSUKxXe2bfv12bOm/Pzy8nIiInIYuUbhPgoGO2tXW3VqszP0VdQ9GNyxT+l01maN2dwh7qna10wt3W6TSUWuQWpujUTr5s6mQfVh4SkxVa2GBoWH3TayuCIn1be3E1Giq/TnNaajq0Pb7Ao/KYxIRKSu0xIRdXUYmtqDdWttQ27Sq8QPAVYwpBSg9As5yffgKykpWYI6YFFNTEzIXQKAtB/qdCdOnfpvjzxSqFAILRdu3Og6fXpfScnMzIzQYtU1kp2xUJ41cmaNnfXpyW3VqY0Ocbo2quOecpoH2xhrjzqpqlbj7HIRqRxdHRohtwZjsEpfa2iMD8KOrg5tXSsREdmcmrb4QOs0qznRLrNay/zHdA8NaEP5Pkrw6FCoF9cd9RBgRUNKgXQLOVgTAgByKi0o+Pa99/6sp2eC54nowo0bJ06deiQvr7S0tLCwUOhjE62YIKIBbfBL1b5mbUfUkgyJp7RRxwbpmwwdXQ5yDw0YmoRnw4tD9E0GZ2gJh9OsFtY5H65z9YWSsbZOHf8ywis9GGMui5bucEwJDqPa1tyZuIO6TjswhCXXAADpBtkaAOSUnZ29ecOGp7dsOdTTc3ps7Je9vXvz8zdu3FhVVVVUVLRop9U3GQaGHN02TSRaO4Opt7GDQkFYSMwui9Y56AodqXGKFk/Paf5jxnEYJaO3e2ggnOxdg05NLWatAQDSDbI1AMhMqVTWVFQYt2x5+4MP9pWUVFVVVVVVFRcXK0KrRJqjr9vTOINfurttztC8c9KnYuibNOZGszhaGyLXJxqi8rPK1GenxtAeHa0WMqsju+U5jIl2zpvvmKra6Ljutuqig7Uwxx4cMZSnxTEbAADSxwLveQ4AkEJKpVJVUfHj/HyPx1NQUFBUVBQO1kRk6rTo1MH7DhvsrN0V/tJgZ1H5eY6nYumbDESiBSGWTr3oqcbD3W6TqLMwsM7i6jOZ+lwULofIYGeS1zLewZhtBmdkOba72+YkpzO0fFtrcfW127u4mBfl7pZe9w0AADJLcs/zkydP3uVVAmtrtFvW09hF5/DNuxkGogwODgYCgbq6uqysef3lYWJiYv/+/YtdFcB8pNvNadOB26pTD7bFbHkylwRrRlILPylIf0gpy1Kmh5w7nrcW3oVBUyPOj0dTWxDMh9frPX/+vMvl2rZt2+bNm+UuBwDuikqYmTfG7iiYCNc4YHG1Y9YaIB5SyjKQ6SHnjtdb3xx2Oi+OERGNXcRbVl63b99+99137Xb7+Pi43LUAwN1QmfrY/OetGVvkKWuAjIWUsmxkbsi56/XWwifEqakpYbusqZH+j0c9MR8cYzoLpkb6Px7NE44e6f941JNbsbWhupCmRpyX82O6eSQO9dxt5cvF+Pi4w+HYtGnT9u3bCwoK5C4HAAAgbSClZLhMDDmpupbxM5fz47wa7Zb11ZVrR4epZst6EpYvRd5tuRVbt6wPvuHW1mi3VKsrbn487LxIwsPL+dWFNDXS76KtDbHdXKQOv7lTVPCywhj75JNPrl27ptfrF3PbMgAAgEyElJLBMi7kpChbT3s8ROG7Fq8tWU9EYxNR1wXkri0rJKLqBm11sKUwP4/Ic3O4fyS/obphC9HYxY9HqWKrRLdpIqLC6gZtNd67EjiOy6yPdAAAAEsHKSWTZVzIWeo9+KTec3n5hUm73XR6gh8tC6sbtPm4oDeivLx8x44d5eXlchcCAACQ2ZBS0k0mhpxFuXfMzPQUEeXn5oobPZ5pIiqsrlwb3XltjbD7zcUxWr9lawUl6EY3h51Op7N/ZGoxKs5MRUVFDz74YGNjY2a95wAAAGSElJIRMjfk3MUefOu3aPNHnJcl+nhGXSNlDdWiv5gQEd0cdvZPb22o3qINrvafGhn8rKyuupDGLg7fJJoZmVpfXd2wccTZPxLdrd9F6obq0MfGqZH+Ff9xcNWqVTt27PjKV74yz60fAQAAVgKklGUg00POot87BtJBum2rDisZ7kiSKfCTgvSHlAKUfiEnIz8QAAAAAACkIWRrAAAAAIDUQLYGgLQwdvv2y3b7tVu3fD6f3LUAAAAsELI1AMhvdHLyPz766JnHHz9x9uxfrl71er2yleK26nRWt2ynTwm3VcdxRsd8unJcxr9aAIC0gmwNADIbnZz87fnzf7tnT5lCYdq799XBweHRUTnj9R2JyuLiL9xWXVRw1XFh0XHWYYw8Y3REJfvYoB81ZqIB3dYWs8bO2vXRQwt9wi3B6M3sGnML0jUAQMok34NvYmJiCeoAgJXpaihYC7dMK1QoWh977FBPj5FIVVGhVCplri8p1b5maul2m0wqIne3jZo7VUQkPDYYyBZ8ioi0FlefSUVEbqtObaxl7XrhoVljZ0xPREQOo7GR6hKeK2ZMqQGJHEfNZHHpQ8cY7MF2YfxGsjOmF45wsHY96Vsth9VHHaZIJ4CMgpQC6SZJtvYH2GeFap5TLE01sBgUzF82hWkpSFOvnjlj+MY38kQtJQrFd7Zt+/XZs6b8fOGWATqdUUMdHU6iUFTU6azNGrO5w2Bn7Xq3Vac2i54kHWdsCwVNI9fV5Ko7HOwQSqORQ+JbiLQWInFLaFjxSSP1isK1a5CaWyPRurmzaVB9OBKuw0fUamhQeNhtI4srMpq+vV2rsyb6XiUcUzQgObo6tM0uleQA1NVhaGoPFq21DblJrxI/BMg0SCmQhiEnyZoQxlgOP7M0pcAiyeFn5tzEHEBOP9TpTpw6NcXz4ZYLN250nT79SEHBzEzol49zoK6TMcaY3dDRaHQQkdM82MQYa9cTGYWJX8ZclgHhyTZDR5ew4sHR1WFo6lIPtjHGGGOuZluL1U1klGgJDsJcFi0RSQ0rPqmYqlbjHHQJZ9PUiqL1PpW+yeC0dcf+1nd0dWjr1EREZHOGjghzmtXhdRzhuD/3mKIB3UMD2uZ9oiE7GiWWoYiKjnoIkGGQUiANQ06SbL22uHi1f3JpSoFFsto/WbKmSO4qAKSVFhR8+957f9bTM8HzRHThxo0Tp049kpdXWlpaWBi6z1k4LeqbDDQw5CbSWlpDCXcg9Fi1r1nb0eUg0jcFw7Wja8DSqh8I5UtObXY6B11EEi2iARMNS3F9goLncw8NGJqEDsEYTCQOwuHQfLguuJaDiEKZOEJrcbGQUNCXHlNywOjK2oMDzbmqWl2nHRhKr2kfgPlBSoE0DDlJsvXOnTuyvVM5Ac/SVAMpl8N7sr2f79q1S+5CAKRlZ2dv3rDh6S1bDvX0nB4b+2Vv7978/I0bN1ZVVRUVLfTXpb7VMtDlIEfXQPM+VXRaFWad41vuir7JMDDk6LZpItHaGQy+jR0UCtfCSV0WrWiWWCMxrS1NYkypARNQ12mjG9xDA+FY7xqMnz0HyAhIKStceoacJNk6Pz+/Yv26kulPs5h/aQqCFMpi/pKZTysrNuTm5spdC0BCSqWypqLCuGXL2x98sK+kpKqqqqqqqri4WKGIW0Pp6OqIXvFARBqn+aiDSEifwYlj1b7mgS5jMFqHO8QfImoJZlx3t82ZcNiE9E0ac6NZHK0N9lB0t0cv4VCZ+uzUGNqmo9VCZnVktzyH0egkSYnHjB5QVSuK6w5jsNXdLSw+CU3ohxuIomM2QGZBSlnJ0jbkJN+Db9euXQW5q8q/GFHic2FGyeE95V+MFObn7tixQ+5aAJJQKpWqioof33+/Wq2WCNbhxQ+NZI9b/NDusgw0Cus7NPbQHLRqX/NAB7WZVOIO4XXHEi12jXCOlkGNNvGwCembDCReECJaPRK/PlovjK2zukll6hPX0khN2tihE4553S0xYNTp1HXBoUOvQd9up9gXJY7ZAJkHKWVlSueQw7H5rQD/4INzo9eueXMKZpRrZrNyA5yCiFvs4uDOsSzGK/mZ1b7JHN/n91RsSMP3HKxwhw4dOnjw4B0dotNZO6XXE4MEt1WnHmyb71IXhzHRcu0F/KQA5IKUsjJkRshJvr+1YOfOHdPT0+fOnZu4dbmYI0UW3rJpig+wAKOSNUW7dj2abn8lAYAloDJ1WnRqzmifT7zmGgcsrnZ8boFMh5SyQmREyJlvtiai/Pz8Bx98cPFKWTI7d+5sa2t74oknhC85Ljh5/7vf/e7QoUMffvghx+H/SYA00tdnkruEzKIy9bF5fssY61vcWgCWyrJJKUkhxqS5lXjP8+eff/7FF1+MXwxz5MiRF198Ee9IAAAASFuIMWluJWbrb33rW9nZ2b///e/Fjb/73e/8fv83v/lNuaoCAAAASAoxJs2txGxNUp/58GkPAAAAMgJiTDpbodk65jMfPu0BAABApkCMSWcrNFtT9Gc+fNoDAACADIIYk7ZWbrYWf+bDpz0AAADIIIgxaWvlZmsiamtrO3ToEBHh0x4AAABkFsSY9LSis3X4Qx4+7QEAAEBmQYxJTys6W3Mc99Of/lR4IHctAAAAAHcAMSY93cF9GZeNF198MfxYuAhA3CJ+DABLZuz27f9x5swPtNrS1atzcnLkLgcAIE0hxqS5FT1vTfioB5AeRicn/+Ojj555/PETZ8/+5epVr9ebqpF1Oqs7VWMBAKQZxJg0xMXfM3Ol4Th8EwCWzqFDhw4ePChuGZ2c/O3583+zZ08e0RTP//e33/7f6+pqKiqUSqX0EG6rroU6+0yqeZxOp7Mm6qnjOCcRkcHO2g9zHFlcwY5uq66FGsh8zBnVXxvusDLE/6QAIA0hxqSblT5vDQDyujo5+Z+hYE1EhQpF62OPHb940T06msLZa0l9LotWa3Gxdj0RaQ0aW4t4itvUxxhjLNiHMcZWVLAGAICFQbYGADm9eubMUzpdnqilRKH4zrZtvz5/fnJyUmhxW3WcQGd1E1lbzE6nWS18FXnO6AgO4DBysU3kMAYPTqiutU1jPuqYowcAAEBSyNYAIKcf6nQnTp2a4vlwy4UbN7pOn36koGBmZkZoaTFr7IwxxuyaQReRqTM4l9xnUhnVwedcloFGo4OIrLpGEnozYUaayC20JZt31rfbqdGIdA0AAHcB2RoA5FRaUPDte+/9WU/PBM8T0YUbN06cOvVIXl5paWlhYaHQR0MdjZzRQaRvD6blsAGtpVVPRKTa16zt6HIQ2SjYEuQ0q9WDbSz2QEn6VsvAYVz7CAAAC4dsDQByys7O3rxhw9Nbthzq6Tk9NvbL3t69+fkbN26sqqoqKioS+rQzxlhTV/Qqj/nSWuyhKe3kVKbOZtvR7js9BwAAQBCyNQDITKlU1lRUGLdsefuDD/aVlFRVVVVVVRUXFysUCqGD0eom0rczl0U7MCTMKjsHXUREpHEG10i7u21OQ5OeqJliV02rTX12apznXnwqUxuZzc7kHQEAACSsxHvHAEC6USqVqoqKH+fnezyegoKCoqKicLAmIjKrOTORsAueiohMbQaukevQWlx9LotOLezvarAzPRGZOsMtZLAH96XSt9u7OLWOojbR06nNTiI1N2hn7aJa9O12Q8fhRX25AACwbGFPRGwMCbCksGtypsBPCiAjIMakG6wJAQAAAABIDWRrAAAAAIDUQLYGAAAAAEgNZGsAAAAAgNTA+ndcBACwpE6ePCl3CTBf+/fvl7sEAEgCMSbdYA8+AFhqJSUlcpcAyU1MTMhdAgBA5sGaEAAAAACA1EC2BgAAAABIDWRrAAAAAIDUQLYGAAAAAEgNZGsAyDBra7RarbZmrdx1ZJrBwcGBgYFAICB3IQAAyxn2CQEAma2t0W5ZH/piasT58aic1SxfXq/3/PnzLpdr27ZtmzdvlrscAIDlCfPWACCzm8NO58UxIqKxiwjWi+327dvvvvuu3W4fHx+XuxYAgGUI89YAkGaEeeypqanCwkIimhrp/3jUEzO9HdNZMDXS//FonnD0SP/Ho57ciq0N1YU0NeK8nB/TzSNxqGcJXlyaGB8fdzgcmzZt2r59e0FBgdzlAAAsH8jWAJCePnM5P86r0W5ZX125dnSYarasJxq76By+GcnEuRVbt6wPxuK1Ndot1eqKmx8POy+S8PByfnUhTY30u2hrQ2w3F6nDEVzmFyoTxtgnn3xy7do1vV5fVFQkdzkAAMsEsjUApKVpj4coL/TV2pL1RDQ2cVPcJXdtWSERVTdoq4Mthfl5RJ6bw/0j+Q3VDVuIxi5+PEoVWyW6TRMRFVY3aKtXaMLmOA7z1gAAKYdsDQCZTSoZ5+UXJu120+kJToAXVjdo8y86h2/GHrN8lZeX79ixo7y8XO5CAACWG1zLCAAZYGZ6iojyc3PFjR7PNBEVVlfGbMe3tmbLehq76Lw4Ruu3bK2gBN3o5rDT6XT2j0wtZuXppqio6MEHH2xsbESwBgBYDJi3BgCZRdZPr9+izR9xXpbo4xl1jZQ1VIvWdRAR3Rx29k9vbajeog1ekzg1MvhZWV11IY1dHL5JNDMytb66umHjiLN/JLpbv4vUDdWhye2pkf4VMGm9atWqHTt2fOUrX8nKwqwKAMBi4RhjctcgM47DNwFg6Zw8ebKkpETuKiC5iYmJ/fv3y10FACSBGJNuMHsBAAAAAJAayNYAAAAAAKmBbA0AAAAAkBrI1gAAAAAAqYFsDQAAAACQGtiDDwCW2sTEhNwlAAAALApkawBYUv4A+6xQzXMKuQuBuSiYv2zKLXcVAACZB2tCAGBJMcZy+Bm5q4AkcvgZbJgLALAAyNYAsKTWFhev9k/KXQUksdo/WbKmSO4qAAAyD7I1ACypnTt3ZHuncgIeuQuBhHJ4T7b38127dsldCABA5kG2BoAllZ+fX7F+Xcn0p1nML3ctICGL+UtmPq2s2JCbmyt3LQAAmQfZGgCW2q5duwpyV5V/MaLE7HWayeE95V+MFObn7tixQ+5aAAAyEsdW/OUqHIdvAoAMPvjg3Oi1a96cghnlmtms3ACnIOLkLmplYlmMV/Izq32TOb7P76nYgGANkEEQY9INfh54UwLIZnp6+ty5cxO3bmdxpMhCsJYNH2ABRiVrinbt2oWlIACZBTEm3eDngTclAAAAZCrEmHSD5Y85ZAAAIABJREFU9dYAAAAAAKmBbA0AAAAAkBrI1gAAAAAAqYFsDQAAAACQGsjWAAAAAACpgWwNAAAAAJAa2XIXAAAAAAALx3GLcn8AbO23MMjWAAAAAJlqkRLwIuX1lQBrQgAAAAAAUgPZGgAAAAAgNZCtAQAAAABSA9kaAAAAACA1kK0BAAAAAFID2RoAAAAAIDWQrQEAAAAAUgPZGgAAAAAgNZCtAQAAAABSA9kaAAAAACA1kK0BAAAAAFID2RoAAAAAIDWQrQEAAAAAUgPZGgAAAAAgNZCtAQAAAABSA9kaAAAAACA1kK0BAAAAAFID2RoAAAAAIDWQrQEAAAAAUgPZGgAAAAAgNZCtAQAAAABSA9kaAAAAACA1kK0BAAAAAFID2RoAAAAAIDWQrQEAAAAAUgPZGgAAAAAgNZCtAQAAAABSA9kaAAAAACA1kK0BAAAAAFID2RoAAAAAIDWQrQEAAAAAUgPZGgAAAAAgNZCtAQAAAABSA9kaAAAAACA1kK0BAAAAAFID2RoAAAAAIDWQrQEAAAAAUgPZGgAAAAAgNZCtAQAAAABSA9kaAAAAACA1kK0BAAAAAFID2RoAAAAAIDWQrQEAAAAAUgPZGgAAAAAgNZCtAQAAAABSA9kaAAAAACA1kK0BAAAAAFID2RoAAAAAIDWQrQEAAAAAUiNb7gIAAAAAQH6vvPKK5Jc/+clP5CgnUyFbAwAAAADdvHlzji9hnjjGmNw1yIzj8E0AAAAAiEA6WjCstwYAAAAASA2sCQEAAAAArLdODWRrAAAAAMB669TAYhqsKAIAAACIgnS0YFhvDQAAAACQGsjWAAAAAACpgWwNAAAAAJAayNYAAAAAAKmBhepYrQ8AALDSTU9Pnzt3buLW7SyOU2DiEUL4AAVYYG1x8c6dO/Lz8+dzCGIlsjUAAMCKdvbs2Wtj133Kwi+yi32KPJ7LIuLkLgrSAVOwQA4/s9o/me2dqli/fteunUmPQaxEtgYAAFi53u55Z3rWN5Ff5ctaJXctkL5yAp6S6U8Lclft3fv1uXvizx4AAACwQr3//vvTHu/46moEa5ibLyt3fHX1557Zs2fPzt0T2RoAAABWounp6bHr4xOrvxTgFHLXAhkgwGXfzK+6NnZ9enp6jm5YDoE1IQAAACvRu+++Oz7DbuRWihv/7ae+pAeWbFDu/tYnRSXlq/LmdXEbLCelM5fL87MefPDBRB2yl7IaAAAAgDQxcev2F6s3xjTWfnVNVhZxHEdEJMy8cUQs+N8AY4xRwRrFhXNn6nfsLq/ctNRFg9ymlWsmbl2eowOyNQAAAKxEWRz5FLkxjc3PrnuiLpuIAkzYf434AOMD5Gfk58kfYF4/9f55+rVfXPJoGuSoGmQ2m5VbPOcuMsjWAAAAsBIpsjg+bqU1x9jUtP+/rk/7eKZQZBWvzhm96fH5WWlx3ujEzKyPqSqLeJ9floLn7dKpA4/aLjQc731d7koyg+f2jckrw5JPFVfW5BaVilsCnEKRNVe4RrYGAACAFSs2JAUY4xl5fIFZL5+drchVZs/MBmb9rMAX+GI24J31Tc3M+LxeWWqFRbJqdfH1oT/5pqdi2nPyCsrU2+K6J9n7HPuEAAAAAAQFeJ4PkM8fmPUzr8/v5dmsj816/bN+NusNeH1ez6yf9ye/3hEyCKfIvmerLr79nvseUGTn3OlomLcGAAAACOL5gLDAmg8QxwXXWPt58vHkD5A/QH6e/H4+wdHv/erhZ05TQ019//AFIqKaAz2tT26isy88+9wbtP/E8d09zz5HB3pf0gR7ChqaX3udflZru0APvDz0vV1EVzqPfv/IcP3zx4+1BB8LHfefOP6Pe4goeaNEVZFzPXI5vh7pMQd+XnvsZGiY8ImWo9Lq+nHXn6YnxsIt+WvXlW6uW8BQK3Te+hUR8Zdy1wUAAAByCvj9fIB4RnyA+ADzMeYPpurwAwr4k6y33v5PQ8d7e5rrafjYo78K32lk5F+PPvcGEdGVzqMPP3O6/vmXeoVu/bbvf/d6bQMRXb18iYjG33cME9U8/FAw7+4/cbx36KUDDXTymaNvXpqrkZ46EBwzdFKpc526El0PkeSY429+99hJqjnQc7x36Phrz9ek9hudbjiucttD4obKbQ8Rl2T5h6QVmq1vioi/lLsuAAAAkFOA9/t48vHk43mfP+D3k5cnPx/w+gN+PuDnmY9nfJJsrV5XSUSbtj4cictERKT/Qe/Q8d6X1oeiczmFu/V/SnU1RMO9fxgnGvukn6hh+/2bBl4/Mkz0wO49RFS+UU1Ew59ckmwMxvEDz2iiSxmXOteH718S16Mhkhxz7JN+CpVElS2ty3fSWlC4rmrNRpXweE2VunD9lxY2zgpdE/Lyyy+HH7/yyiviLwEAAGDF8vt4X4BmvH7v7Kw/i5vxeLyzsz6/b2ZG4fXN8j6/j2d8wjUhUco3qon6hz+5RMIm2tXV5XN081U319PwBfcYvXf+JFG9fmslCQsUTj9Xezrce2SEqiUax6ifiO7ZmGS/7eC5Ll2SrCdmTM0/PV9z8sjwhSMvPHyEwutblrXKbQ9NXh0hYvfct/APEis0WwMAAADE8/t5v59fpeCZIkAc+X3e7CyeFMzv82ZnBbicLD5AjJ9Xth6/7CKims1J8mio256tmxtsF944/6bqamimWcjWwUXYIQM/PxLfOP6mg6j/6uVLtGuu0wXPtWnT8PXR+GdjxiSi1t4WCq26Hu79Az3ZMvdryXSrCtaUq79KHJdbuHbBg6zQNSFYbw0AAADx/D5fTk7WhrKCDWVFZWsL8/Jy15UVristzF+dt66saF1ZMadQskBgHiO99/ax4NKOmCfKn/zRA+G1FnTp495gt/L79TVEp48dGQ4dpfnu8zVEp/+9c1w48krn0Z+/J9koHBsec/RCknPFlCQ55sDPgyuzhWepuvpOvpGZaoPmrzbU3383I6zQeeuYpdVYaQ0AAABE9NnEjN35KS9sF8IYCxBjLMCExxwjRkQz07NzjvHGsYeFawQbml97/ZFKotg7ZO/5Xu8JevgZYa1FpBs9tL3+yPCF4IIQIqLKltbX6Oj3j4R6Eu0/kajxBwccLxwTGhtq6okuJD7X5RdsMRVJjkn9tu/XBnvWP//Scl9vLchWxt6q805xjLGUlJK5OA7fBAAAgBXn5MmTVwrujWkcv3Lpwrkz41cuSR4SVl65qX7H7vLKmAlgYbe7p4K72sEyVfn5n/fv35/o2RU6bw0AAAAQr6ikvH7Hbo+mYe5uuXn5RSWSlybCSodsDQAAABC0Ki8/bjZ6/vZ8r3foe6ksBzLPCr2WEQAAAAAg5ZCtAQAAAABSY+FrQqanp8+d+//bu//YNs70XvTPiLIiKfoRy3Zsra3GrkllpWXQYy+8zplpna3rJiAV3BLbvUyB20D7IyD3XKRL4h4IaFHvcYy62D0wekDi7L0ICd9FhNPuPeXZ7qqoSQLxro3U4aBOEN/ohKGxmvE6ye5akR3LphVbv0i9548ZDmfIIUVKI1M/vh8Ei+E77zzvS/Jt/ejhO+S70/fuN3GcbSOn6P/yL/9y/vz5Rs9i5fJLtMSWtnd3f+UrR9rb2xs9HQAAAICta4W59ZUrVz6durXY0vng8X2LtrY810S0kp9ch1VjNra0LT+bn8u++fNf9O7effToVxo9JQAAgI1h7+e/bPQUYLNZSW795oWfP5xfnO44sNj0mOUTgjpxec6Wb+6Ya+7Y1jJHt3/985//4sSJP2r0rAAAANa7995779SpU42eBWw8p0+frvIdfHVv5vi3f/u3h3MLtx9HYr3uLDa13n78wOdz81euXGn0XAAAAAC2ovpy64cPH07duj39+O8scbY1mhCsxhLXfLe979OpWw8fPmz0XAAAAAC2nPr2hLz77ruLLZ0lFev/9z8tLnthz56W3/+Tj7p6dj3Whpvt1tZCU+vito533333ueeea/RcAAAAALaW+nLr6Xv3Hzy+r6Sx/9890dREHMcRESm/Hc4RMfV/lxhjjDqesH347ttmvw4K1nvY8sT0vd80ehYAAAAb0oOPRmhppvV3/kuTrU1NbwBqVl9u3cTRoq21pNH7nSf/t8FmIlpiyvfBUX6J5ZcoxyiXp9wSW8jRpV8+/Pv/8vGyvyAKlphvau3G/ysAAACo34OJr7bYFlkzzf9Px/zvvNX5xP7mZvyINdShvuVia+LyZTutOcZmHuY+ufVwMc9stqbux7dN3p1bzLEd3W2T07Pzi8y+tyu/mKtxiPSVf/3hX77yBy++9H/8x7+pa26b29z9O9nfXjc91b33YGvXDn3LEmezNSG5BgAAqM/cp9HWXV9cmpU4zt667bM71wPM8d+2b99erXoth4VhGk0F7I9wnut3GrCi32UsXV5LjOUZm1tcejiXm53Pzy+y2fmlB/NL84tLD+aXHs4uzMzOLi4srGByF/9p9Dt/2P8Pf/e9ei/8h7/73nf+sD995V9XMOj69Njj3bcm/v/fvv+vJf/d+uXVbe1dZd2RWAMAANSNa2pjS/dsNrI9uEK53OyD+9lsdmlpSesgCGG5gfOzjsAp/EkigeOKT0sOK88xXOih2SxPfc1Z8IOKS/l8fokWc0vzObawmFvIs/lFNr+Qm8+x+YWlhcWFuflcPrf8/Y7ljv/p8OuXJlDAJiLO1vyFZ4Ty9i/83h/Ymrc9+vkAAABsPo89+fKDqY+X5h+wz2dm5mY+uDNcUrFObZbCcEoK8XxIYhEXEfE+Z2y4JHMOpBhjjKndGGNsszz1NWdBbp3PLykbrPNLlFtS91jn8rSYp5zWkstXujx95V+/84f9yn9nX/2z8lNa3fr2bz/WeiqNSsvZV//s7Kt/prRf/KfRi/80evn8PxLRD//yle/8Yb/phVSobZc0rmc7DnypvWe3vqV9+5M79g82aj4AAACbUMc3ONtjs59Pp6eO7vnCQHd3d1NTMVkq1q3lQmHXERQrRBIEv19fHyYShHDYX3ikRVBPklA4IEr6OX+y2KEwapUWbRrlYfWDmhscOekMnq18HuphRd06l8svUZ5RfonyS2yRsZyaVWsHtJQz32+t7K4++KXDr1+aeP3SRJVRbv/24+/9+R//wYsvvX5pwvvqX18+/48X/2lUOXX9w6vf+Kv/rFwe++HfHv/T4T948SUievUH516/NGF6oZJ/e1/969cvTfzN319Y/YvwKHDc3kNf1TfsPfRVwv3LAAAA1mlpaSGO8tScbfkPTz31VGdnp+lma78j6EwUKruVYonpwVHGGGMJX9TtTxKRGMx4GGMRly6CFEorJ0/6omNKfpsci/o8Y47MSaYM4VXKyn6TltJplIfVD1qRK5Igd5XsG2pnyZ6Q3GKeFvO0mM8v5pZyOVrIUy6/tJBbyuWXcnm2mGf5Crn1+NsXiMj18v+pPBz54X+vNMqb//0cEf3e7/8xET257wARTX6k/ul48EuHla/2O/glk+8hMb1Qufa9S0ki2rX3qY2y7aTzyb4n9qmfyDzR5+jc/TuNnQ8AAMAmo2TSTWx2+xMdnZ2dlb4kJM2HRqrlqkRExHuHlH+0XR4fpSdkIt1VWgT7kJePjiWJXB41uU6OpUMjrjRF3VpNWsxIRCYtZdMoD0u1TJXINRJKn8GWagtY8LUyucX84hLNLuQW5udzTdzs3NzC/PxibnF21rawOJ9fzC3mWb7ynpC6/PAvX9GOb96QVnzhN/7qP18+/4/XP7yqbBrxvvrXx/902JIZrrW9h76avXmDiH3h9441ei4AAACbE+OamBU5Un1cI6EzZ5NEY2nviJ1ifEgy7nE+U95i4ej2wKhXOBv3Whhya7Kgbp3L5XO5/GO2/Dbbkq0pn1tcaG7Kb7Ox3OJCc9NS87am/BKxvDW5tbLNQ/mvSpF72Qt37X1KOVZ2jygF7A3hsY4ndjn+3a7+w62d2xs9FwAAgM2mdfc3Zu9N3uMOt7W12Wyl3zuscYqxuExEJMdjlfZbFyXHoloNuxhB3eEsx2Oiz1OoNafH/GNp75Bd16H8kirTMAtbK3vgJAUrbh+HGlmRWy8ubtvWtGdnx56dXTu3d7a1tT65s/PJHZ3tj7c9ubPryZ3dnK2F6b6/Rk/ZqpH8b/+P8rDKPYXP/9kr+p63f/txlc69++1EdOs3Nypd+A9/973bv/1YO/uFA456n3UD7XH++z1ferbRswAAANic8nvfzfX+aM+ePS0tLZX6RBLOoIPjOG4446y831rpwnFuSpR9y0ZECqXdyv4OZ6KwF9o+5E1H6WTAru+g3bto0lI2DdOw5QRHUBSDjtIbHF2RhG/Z1weqs+Dzjs+mZxPir/PK14UwxpaIMbbElGOOESOi2Yfzptc6jx579QfntC/0OPilw0q2XW7X3qf+5u8vfO/P/1jpSURKydnU8T8dfu9SMvbDv4398G+VuxXLL/zen6sDHfzS4Y2y31rR3FL605gAAABgle7u7u7ubtNTqVRAPXJFGIssE6hsC0fxciKyB1IsUHqJPZBilTuUt5RPo6yPYVCtkWnDkEvfwRVh+oTcHkilyq+Gajime3GXdf78+d92PF3SePu3H3/47ttKGbiKXXuf+tKR31duOoS1tvfzX7744ouNngUAAMD6dfr06VOnTlkULOnn3FFDC09PeqUpfCn0JlR95VhQt+7q2fWlI78/5zT5jg691rb2rp5dqx8OAAAAYJ2ppY4NW4IFufVjbe2oRgMAAAAAWHAvIwAAAAAAEHJrAAAAAACrILcGAAAAALBG3fut937+y7WYBwAAAADARldfbv3ee+9Z9201sIZOnz6N7+ADAAAAeMSwJwQAAAAAwBrIrQEAAAAArIHcGgAAAADAGtbk1g8+Gnnwq+/kcw/r+gV1AAAAgPVm6v79HyQSn967t7i42Oi5wMZjQW79YOKrLXlxm+2D+f/puHfnei6XW31MAAAAgEdvMpv9yfvvv/LCC+euXPnVzZsLCwuNntEjIghhuXGXPxJyWOA4f7KWrhy38uez2tx67tNo664vUlsr1+Js3dbx+fXA/fv3l6ley+Ea34CN8D4BAADAJjGZzf5sfPxbx47ttNkCJ068kclcn5xcR+l1zRnUCvtbyDC0/oEcFgyJq8BpjHNN+otn/EnDEyl9XoaYlQLK4eGgM8EiLqW7sYc2mJp6s4QzOLzCl261uTXX1MaW7tlsZHtwhXK52Qf3s9ns0tKS1mH1b+paLCNB9woa3mI5LAjhv9C9LWbvNgAAAGw2N7PZn46Pf/PYsTYiIuq02Uaef/71a9fkdZVebxT2IS/F4kr2JMdj5B2ya8c+n3aKiPiQxBhjjEnemENNbeWwwLkpwVQJGhOrjFUS0ywgUfJskEIjLiIiKeNUQ6sZdNKvDiaF0m7lCtdIiIJna6pxl1ptbv3Yky8/mPp4af4B+3xmZm7mgzvDHMfpO6RSAfvqhlh9BJOYUojnQxKLuIiI9zljhr9NAinlLVH6MMbYGkwBAAAA1pE33n77JUFo07X02GxfP3Tox+Pj2WxWaRGEcNhfqG4Wy59qCU4Q/H7BUP+s3t/QYBJNubYYLTwcFMWgo6R7bf3LR6+ovKduMKXNpPJbSpdcSxlDau0d8ThFXXKtXdHvLBzGYxSSIq7CQ1ckwleZb6WYuoCUHIvyhUm4IoXQjkGeiGgs6vO41Enz6Qm55LBOVtzL2PENzvbY7OfT6amje74w0N3d3dRUDFvyIQDHcZwjWPmPj+IHANofGiYROCEsm6wh0i+jv/iLWtcQDY6cdK7wbxMAAADYFL4tCOcuXpzJ57WWD+/cGbt8+XhHx+zsrNokBjMexljEReR3ZE5q9VGlRiemB0eVeqgvqtQ/q/YfDqr104Qzc9wkmnItYwlf9ExYJgqMqlW/VMBuVwuBjCUKOUzV/iazraC8p99RmKgUUnJck9HL2PudYkYiouRY1NmvS62H7C6PzyS5To5F+UEHERHFxMIVGjHo0PJ7QyZZOaYuoDyR1lLrskvNJm04rI8FuXVLSwtxlKfmbMt/eOqppzo7O0tK14ryN6ZcWCh+AFD8a6UYwfhml60h0i0j5w8XalxDRESuSILcte1uBwAAgE1oR0fH155++vsXLkzn80T04Z075y5ePN7WtmPHjs7OTrUTr24rIKI0Rd1aqqdkYcXKqMdH6Ql5mf5Oiro5f5LIFYn0mUQrXKtWV420gqM7qgxVvb/JbCso75nWPYuKo5dzeXzRsSTJE2m1KlzMZfWJsJY0nxmUtH0ChZy4SNvpUZJJlsc0DWgi6XfEvKOVOzgGV1a4tiC3VjLpJja7/YmOzs7O5mbz31E3eWPKxKhan5I3+5ZFa0jhGgmlz2BXNQAAwBbV3Ny8f8+elwcGTl+4cHlq6keXLp1ob9+3b19fX19XV5fJBfpsz6QkuHz/CGOMecY4juP8Yp3RBEfMKy1TslzhbMt6lm83qG10l8eXnkjGY85iai2qia87SoXkWhlOCvG6bM10z4gpk5hmAcsk/aaptzyR1tJ6KVNePa+FZb8dw7gmRuZZtWWMb/YyK6neFW8PjHpjZ+MWTRUAAAA2mpaWloO9vf6BgTffeWeop6evr6+vr6+7u9tms5V3doqV95Pqd/dW7u8Py0SuCJNCfJqqRNPT8sVCfDkeq3afX6F/tdkalfc02cBR2+gujzPoDupTa1/x/kRjVHsglSB3YZPvSIiCxdsQKen3VxilckxjQHu/Ll2Xw4IxsVYK7Go4bf+KLs2uiwW5devub8zem7zHHW5razNdfArtOVV5G7xVb8msdVkon7PUvIY09sBJClbZCw4AAACbXEtLi72397vPPutwOKok1kQUkUJpt/GOPm03gpsSZSVRk/5qd0fMO8rKz5azB076om6OE8LySad68XDGWbHaqOtvMnoF5T0jicJghY3ONY1Oyt4Y/YYQ3faE8v3RLmVkISyTPZDSz8JNHvNRzGLekk0C6oeT4zFRt31bCMuuSILcyvNzJiLFvwRWVLYmYvV47bXXTNvv3bt3/fr1mzdvzs/Pl5zSvmqDJXzKiLzPxxuKyjq6TxZ8CfXaYmf95w586El9uy6gMg7/6qv6ziXD8cVBmGEyCR9VCLuxVHqnAAAAQGH5v5UbN22oVcJHxSrxBiOF+Domr08Iy1RfOdbs4uju7u7u7jY9lUoF1CNXhLHIMoHsgRQLFB+6AoYIJWf1V6V0F2nj/Nf/WmmclO7XbVwp/YgRpv31YwwLAAAAsCkk/Zw7amjhQ5Xv+9P19iXY8tts1yd7YDQkODh/opadwpw7HZIiK/sC5jXeIV1Nfe8rAAAAwHqWSplVANejWuqdK+29flWq0ZpgbOXl1Qbm1pvlnQIAAAAAICILvycEAAAAAGCLQ24NAAAAAGAN5NYAAAAAANZAbg0AAAAAYA3k1gAAAAAA1kBuDQAAAABgDeTWAAAAAADWQG4NAAAAAGAN5NYAAAAARVP37/8gkfj03r3FxcVGzwU2Hmtya6xCAAAA2AQms9mfvP/+Ky+8cO7KlV/dvLmwsGBhcEEQLIwGKyMIgt/vr6Unx3GyLNcb34Lceo1XYbju57R+yWGB4/zJWrpy3KZ65gAAAOvfZDb7s/Hxbx07ttNmC5w48UYmc31y0trEZmORZVn7e6DePwz01yqX6/NUQRC0s5yOvk8ymdTalWxYH7A8vv5hpZjhcNjpdEYiEX0fLdXWWpSHiURieHi4rmdNq8+t1+8qlMO6vFz/QA4LhsRVKL74xnQ26S+e8ScNWb4heGnMSgHl8HDQmWARl2EEtYs2mJp6s4QzOIzsGgAA4BG5mc3+dHz8m8eOtRERUafNNvL8869fuyavk8Sm0VKpVF397XY7ESl5rfK/Sov2UDvgeZ4xxhiTJMnhcCinwuGw2+1mBdXHKglYKSYRBYPBkZERIkomk4lEQumTTqdlWfb7/UpLKBRSsm2Xy6X0rOuJryq3Xter0D7kpVhceYXleIy8Q3bt2OfTThERH5LUl98bc6iprRwWODclCu9ogsbEKmOVxDQLSJQ8G6TQiCGxPkM+Xj1WB5NCabdyhWskRMGz9b2bAAAAsEJvvP32S4LQpmvpsdm+fujQj8fHs9ms0qJsJ1CKYUrKJctySbFTKaAqHbQDLabSohVTtYAloapsRdD6JJNJ09G1gNpMqs9W6x8Oh0smMDw8LIoix3HhcFipCmsXasflMTVerzcejxORJEler1drj8fjXq/X6XQqZzVa8k1EsVhMkiTtoVJprqRSwJKYyWSS53mlxeVyKakzEYmiaLfbo9Go0jI0NJROp7WnMDExUWXocqvKrWtbheFwSUlWDgvGBkHw+wXlsXpOt28ic1Yw1IALAf1JQ6jyHRS65FrKGFJr74jHKeqSa+2KfmfhMB6jkFSsMLsiEb7y61Axpi4gJceifGESRHJYODMopUYGlYdjUZ/HpU6aT0/IJYcAAACwxr4tCOcuXpzJ57WWD+/cGbt8+XhHx+zsrNIiiqLH42GMJRKJM2fOEJHD4SgpdoqiODo6mkgk3G63cqD01E4pnZXNBlpAJZRWaq20FUEQBK3a6nK5TEfXAmrDKZOpNFutfyAQUEuKicTZs2eJaHR0VCkABwIBZQI+n09J05PJpM/nM42p6e/vz2QyRDQ2Ntbf36+1x2KxoaEhj8cTi8X0/ZXcV3ut9Gmx1qjl8fpqdKWAJTEnJib0KT4V/tQpqYvb7XZRFEueQh1YPV577TX9w0/v3v3+m2/ez+W0lvRnn/1f/+N//OIXv/j444+VFp7Ip6yBhE8p6PoKLVKIV4545UTCR9pBofTLF46kkHpYDMiYTzuUQrxWLdYk1POJ8n76IbQLDeNqgzDtiRgUhyuNaRpQP8HiceGoOEH9ZHWH9Sp5pwAAAKBEyb+Vi4uLv/z4479KJu/kcoyx9GefBWOx8+fPv//++9PT00qYpn87AAAgAElEQVQf/U4D5VjfoqRVSovWQTuo0llRS4am779swJLg+pmY9tfXiStNPpFI+Hw+xpjP55MkyXQOeqajaA+VWZUMavpMyxtNX2ElINO9mPpLQqFQKBQqD6tNo2TaJcE11bOsVdWtd3R0fO3pp79/4cJ0Pk9EH965c+7ixeNtbTt27Ojs7NRyUHUfhGNQSU/ThRb7kJePjiWJSCnoOgZ57aD4kqi1XvuQlxczkj4gUZqibvWPl6ConNVzeXzRsSTJE2m1KlzcHOLy+LQqsxh0KEHODEqpgPonEj/oKImmz92lUHGG5TFNA+rEY6LaxREUxaBDCJu/vo5BFK4BAAAejebm5v179rw8MHD6woXLU1M/unTpRHv7vn37+vr6urq6HsEESnK4RzBiCYfDoSSm+ny3hMvlUvZLpNPp8rpyOaXO7XQWP8iPx+Na+Vl5qKXIWrWYiERRrPE7OsoDku5vA33MKpPUP2VZlrVStyRJ+snXYlW5dcNXoSHf1d8kqHJ5fOmJZDzmLKbWhazWHaVCcq0EkUK8Ljs33TNiyiSmWUC9QEqXo/MhKRXQhZtIa2m9lBGd/csvWwAAALBCS0vLwd5e/8DAm++8M9TT09fX19fX193dbbPZKl0iiqKyRyIejyt7JGph2lkLVZ2+T42ja/uMq/fX9iLrdy2X56Zer9fv92ubK6rH9Hg8brfb4/FoLbFYTNvWkkgktF0cdrs9kUhom7ZDoZB+10eVb82rFLA8Zn9/v3Y2HA5ruXs0GnU4HNp2l3g8ruXTExMTg4ODlYY21VxX73LqKiT6/955Z6inZ+fOnfv27au+Cp1i8GwyEHGRHI+JvpMuojM1DGTaWQtVicvjdLuDvgQrxtC+qCPp587E5cL+IbIHUgk/x/mV8yMhcjj8/cW+fpFMX1mTmE+aBbT3O8UzcTlgUsYmIo8vOpaMuJTXxHlS3Ro+keYHR2p4bQAAAMAaLS0t9t7e77a3z83NdXR0dHV1VUlpiEj/NRTLFpuV8ioR8Txf/rUb+lCmHYhodHRU65NIJKqPrg2nna3e3+l0Kv21FNlut/t8Po7jQqGQ1m1oaCgYDGqXV4+p3B2o3TWopLPaQ5fL5Xa7Dx8+rD0MhUIcx0mSpOzw1uZf6S8H04D6grc+pnbWbrf39/frX0m73R6JREpeLiKKxWInT540HbqiKvtFylXaXzI/P3/r1q1PPvlkeno6p9t+zfSbj7VdxsUNFepu4mJ7yYF+l3P59mhm3JtRvt+aMdO91rpTfEgyBJRCPOl3eGt8idJxy6aqxaQnTQPqNl+Xx2EJn/E10W1HXwnstwYAAKhu0/9babpleYsLhULKfvFaJBIJ09ew+sopvTWyutOnT586daq+5B0K5LDgyJw02bpiKumvtF27FninAAAAqlv//1aWf6udJEm17HJWCIJQ75dSbwWCIGg/H1OdUu0uf8Grr5zV7gmB2tkDoyHBUdgksgzOnQ5JEWy2BgAA2LLqKoCWQ2JtqvaXZWWvP3LrR8keSLHA8t2IiBjD/z0AAAAAbDCr/c1zAAAAAABQILcGAAAAALAGcmsAAAAAAGsgtwYAAAAAsAZyawAAAAAAayC3BgAAAACwBnJrAAAAAABrILcGAAAAALAGcmsAAACAoqn793+QSHx6797i4mKj5wIbjzW5NVYhAAAAbAKT2exP3n//lRdeOHflyq9u3lxYWKjxQkEIy1VOJ/0cx3EcZ8Uc1zk5LHCcP1lLV46r/qptSBbk1itehVUoC7TiMpXDy6zgdWqrrzYAAID1bDKb/dn4+LeOHdtpswVOnHgjk7k+OWlIbFaYgST97nRIYoyxVcwu6S8f2jAf/QM5LBhSCYHTGKMUkn6O4zh/0vDsSp+sIWalgHJ4OOhMsIhL6W7soQ2mJkMs4QwOb7Z8Z7W59fKr0AorWcfrebXpR1C7bInVBgAAsG7dzGZ/Oj7+zWPH2oiIqNNmG3n++devXZNXn9jIE2ly9ttXESAscJw7Wn7CPuSlWFxJF+R4jLxDdu3Y59NOERGv5PaMSd6YQ0025LDAuSnBVAkaE6tNwhjTLCBR8myQQiMuIiIp41RDqzlN0q8OJoXSbuUK10iIgmdrqjpuGKvKrddwFRqlUoG6F+R6Xm3KYz93hny8erwlVhsAAMC69cbbb78kCG26lh6b7euHDv14fDybzSot4eGgKAYdSmWsWJc11ubK2v2OoEhRN8dxu39XMJbSBCEcLqmuFS8vftJtD6SYFOJNZq1Ld6SMIdnxjnicoi7d0a7odxYO4zEKScWanysSMRui8LQqxdQFpORYlC9MwhUphHYM8kREY1Gfx6VOmk9PyCWHm8WqcutaVmH5BwKC4PcLlZaReYFaLRJr3RxBsTR6+U6LdbzaiOSwcGZQSo0MKg+3yGoDAABYt74tCOcuXpzJ57WWD+/cGbt8+XhHx+zsrNISGA3xfEhiLBWw+x2Zk1opTfdRc3l7RFKv8t264SwppYnBjEcp4/miZ8Iykd8RLO1Tlb3fKWYkIkqORQu1cbWm6PL4TNKd5FiUH3QQEVFMLKumi0GH9um7lm5Vj6kLKE+kdclOyaVmkzYcbhKryq1rWYX2QKpQ+3WqZVgxPThaWEZuf9JsFZrSVpv2p1v19bduV5scFoZp1LwWv6lXGwAAwLq1o6Pja08//f0LF6bzeSL68M6dcxcvHm9r27FjR2dnZ3n/tFKKVrICMXOrQrv+H/I0r36AbR/y8tGxJBEVWgq1XbM+1bk8vuhYkuSJtFqnK+ay+tRES2PODEpaClLIUoq0z9516ZZ5TNOAJpJ+R8w7WrmDY3CTlRJXlVvXtAq10rI7SsprV/ywwOOj9IRcbRXqaautvMV8/a3X1RaPiWoXR1AUgw4hbP6EN91qAwAAWLeam5v379nz8sDA6QsXLk9N/ejSpRPt7fv27evr6+vq6jK5QJ8YMN3n28Z2l8mV1nJ5fOmJZDzmLCY7hTzDHaVCuqPMSgrxukTL9FN8UyYxzQKWSfpNkyF5Iq0lWlKmvJ65oa0qt65lFQqOmFcqy0dLrNUqXKerTSvlM+VDolRAF24zrzYAAID1rKWl5WBvr39g4M133hnq6enr6+vr6+vu7rbZbMVOhX/cnaL5bVGV2vWn5HhMLNT9VtCnhMvjDLqD+mTHV7xjzPihuj2QSpC7sJN2JETB4o1hlPT7K9xdVjmmMaC9X5dAyWHBmFgrJU81nLajQJf4bA6r/Z6Q5VdhoUotx2Olb1hhC3KVVainvV1aqGXX3zpdbWW2yGoDAABY51paWuy9vd999lmHw2GSWNsDJ31RN8cJYTkihdJuky8Gq9SuP+UIOhMVaommfeSwoH7Wbfpdvi6Pj/Qf0es+5y/fsepSRhDCMtkDKf1k3eQxL4OaxbwlmwTUDyfHY6JuQ60Qll2RBJU+NX3is1mwerz22mum7fPz87du3frkk0+mp6dzuZz+VMKnDsT7fMpGft3bVkhK9SVtpY/uf5l2UIilhdJdWMxvjRI+/SiGAnnCR3xIYvpGKcRrVXRDnd2X4Ev2hGgTKItJT5oGVIczKF6uvU7aE5FCfMVntaxK7xQAAAAo8G/lWqgvfTFLjta/6iuHY/V8jfnp06dPnTpVb/peQhDCFe7j2+TksODInKx1z0uFHUo1suSdAgAA2MTwb+XakMOCo+QHPSrhOCG04lyncaqvnOZHOZUtzh4YDQkOzl/banOnQ1Jkoy02AAAA2OLsgRQLLN+NiIix1NrOpREakFunUjW+4JvPVl9tAAAAAJvbau9lBAAAAAAABXJrAAAAAABrILcGAAAAALAGcmsAAAAAAGsgtwYAAAAAsAZyawAAAAAAayC3BgAAAACwBnJrAAAAAABrILcGAAAAKJq6f/8HicSn9+4tLi42ei6w8ViTW2MVAgAAwCYwmc3+5P33X3nhhXNXrvzq5s2FhYUaLxSEsFzldNLPcRzHcVbMcZ2TwwLH+ZO1dOW46q/ahmRBbl3rKpTDyyy7raiO9VduU65IAACARpnMZn82Pv6tY8d22myBEyfeyGSuT04aEpsVJjNJvzsdkhhjbCXTksMCpyod3DAf/QM5LBh6axFKYxSSfo7jOH/S8OxKn6whZqWAcng46EywiMts2tpgaurDEs7g8GbLZVabWy+/CsusPsNeYYT1vP60AYrnS9ffFlmRAAAADXEzm/3p+Pg3jx1rIyKiTptt5PnnX792TV4usVmePJEmZ799pZdLGWeCMcZY+T/89iEvxeJKixyPkXfIrh37fNopIuKV3J4xyRtzqImEHBY4N6mxGUvQmFjtWRhjmgUkSp4NUmjEZTrtpF8dTAql3coVrpEQBc+usMa4Tq0qt17ZKkylAiteXauKsJ7Xn5qMu6OFAOXrb4usSAAAgIZ44+23XxKENl1Lj8329UOHfjw+ns1mlZbwcFAUgw6lVFasyxorcWXtfkdQpKib47jdvysYy2SCEA6XVM6KlxcSBlekUIVzDPIls9YlN1LGkNp4RzxOUZfcaFf0OwuH8RiFpGKFzxWJlIbXP61KMXUBKTkW5QuTKJv2WNTncamT5tMTcsnhZrGq3LqWVVhcIo6gkoxq9d3CevInqXwhFkvEamKpe1hScV5mjRat4/VHZA+kmBTSYpavvy2yIgEAABri24Jw7uLFmXxea/nwzp2xy5ePd3TMzs4qLYHREM+HJMZSAbvfkTmpFc501eTy9oikXuW7dcNZUiYTgxmPUrTzRc+EZSK/I1jaR6OvDBbY+51iRiKi5Fi0UBtX+7k8PpPkJjkW5QcdREQUE8uq6WLQoX3WXsjclompCyhPpPnSCZpNW5u04XCTWFVuXcsq1JaIPnFUqesp4ipbiH8hFEvEEReFjQ81JuuvbI3qbYD1V6580W3qFQkAANAQOzo6vvb009+/cGE6nyeiD+/cOXfx4vG2th07dnR2dpb3TyulaCUHEDO3KrTr/5FO8+rH1fYhLx8dSxJRoUUrSZv0USX9jph3tOyje5fHFx1LkjyRVmtwxVxWn4hoScuZQUn7/L+QkxRpn7SXZG7lMU0DmqgwbY1jcJOVCVeVW9eyCrUlYkJ3qmQh/pAMV8XIPEgta9Rgva+/+m26FQkAANAQzc3N+/fseXlg4PSFC5enpn506dKJ9vZ9+/b19fV1dXWZXKBPA5ju02xje6UkqE5Jf8UcwuXxpSeS8ZizmNqIauLhjlIhuVFmJYV4Xbpv+pm9KZOYZgFrnbY8kdbSKilTXr3c0FaVW9e9CquotEAttp7XX6VwuvVX3rLpViQAAECjtLS0HOzt9Q8MvPnOO0M9PX19fX19fd3d3Tabrdip8E+5UzS/5alSu/6UHI+JhSrf8n3ksFC1OOfyOIPuoD618RXvDzN+hG4PpBLkLmybHQlRsHgbGCX9/gr3klWOaQxo79elS2XTVgqcajht/0BZmrPRrfZ7QpZdhdprLMdjVW7+K1mIXqr2sPyqKmu0xDpdf2XK198WWZEAAAAN1NLSYu/t/e6zzzocDpPE2h446Yu6OU4IyxEplHabfA1YpXb9KUfQmahQ0S7vI8djom4fqsmXpbk8PtJ/IK/7tL98f6pLGUEIy2QPpPSTdZPHvLhpFvOWbBJQP1z5tF2RBJU+fX1Ss1mwerz22mum7fPz87du3frkk0+mp6dzuZzhXMKnDMT7fMpGfr5QouYr7angQ5LuoS9hOOtL6C4stqvZrOGUoRaun1Ah9S3tk/ARH5IME5NCvFZUN+wY9yVK568Vp8ti0pOmAdXhyl8AX0L3wmmzNWmRQnzxgV6ldwoAAAAU+LdyLVRMTUwZUqENo/rK4Vg9X2N++vTpU6dO1d4fqpPDgiNzcuV7sSpvvsI7BQAAUB3+rVwbclhwGH++oyKOE0IW34j2KFRfOc2PcipQwh4YDQkOzl/T+ivHudMhKbLRFiQAAABsYvZAigVq68pYam3n0gjIrRurjvVXblOuSAAAAICNa7X3MgIAAAAAgAK5NQAAAACANerbE/LlL3/5/PnzazQVsNCXv/zlRk8BAAAAYMupe791T0/PWswDrDU9Pd3oKQAAAABsOdgTAgAAAABgDeTWAAAAAADWQG4NAAAAAGAN5NYAAAAAANZ41Ln19oM8z/MHtz/iYTe8TCaTTqeXlpYaPREAAIBNbur+/R8kEp/eu7e4uNjoucDGs9rcWsmVVc/0WjInKLewsPDee+/98z//80cffdTouQAAAGxak9nsT95//5UXXjh35cqvbt5cWFho9IygdnJY4Dh/spauHCeE5TWZxGpz67vXRfHaFBHR1DXxg0kLZgSV3b9//6233kokErdv3270XAAAADabyWz2Z+Pj3zp2bKfNFjhx4o1M5vrk5CZJr+WwUGMyWUtPQ5+SC+SwYEhcBU6ja036i83+JBGVxjDEryEgkRweDjoTLOJSrjD20MZTU2+WcAaH1yS7tnpPiFLHfuaZZwqV7FZdM8/zA7vLOut6qlf3thJRa+8zai28rJvZpVvI7du3k8nkW2+99fnnnzd6LgAAAJvEzWz2p+Pj3zx2rI2IiDpttpHnn3/92jV506TXFrIPeSkWVzJTOR4j75C9cEqOx8jn084SER+SGGOMMckbc/iTSrLspgRTJWisWqm5hoBERJQ8G6TQiIuISMo41ehqBp30q+NJobRbucI1EqLg2Zpq3PVZo/3Wn0lKObvzwN7tRNsPDuwmmromFmrcREStvc8M7J65cVVUWjsPOHpb717XDrfvPdBJMzeuSlTerbX3mYHdpDaK4geTc2vzLNYvxthHH30Uj8fv37/f6LkAAABsBm+8/fZLgtCma+mx2b5+6NCPx8ez2azSIgh+v2CsfxZLpGqFVBDCYb96vvRk8bF6daFzscmk5GqiWPU1DlMxbHg4KIpBB8ft/t3dZfEN0bSeQlguj1ygS66lTGlq7R3xOEVdLqxd1O8kIqJ4jEJSxFVodkWKx+VqCUhElByL8oV5FCM6BnkiorGoz+NS582nJ+SSQ0utTW79cE6f7W7v2U1EU9N39V1at+/sJOo8cFirZne2txHR3etXb8x0Hjg8sJumrn0wSRW6UaFxqxWtFRzH7d+/f2hoqKurq9FzAQAA2Ay+LQjnLl6cyee1lg/v3Bm7fPl4R8fs7KzaJKYHR5V6qC/q9ieJ/I7MSa2GquwxEIMZD2Ms4iIaDqr104QzIxH5HerjYvVU7cxYwhc9E5aJ7IEU00quFcqqYaFY9Y24agobGA3xfEhibOpXUyXxS6JpPVMBu0nkAnu/U8xIRJQcizr7jan1kN3l8ZnkwsmxKD/oIIqJuis0YtCh7fVwBMV6AhKRPJHmdSm+8WqzeRsOrdTg7+DTas+iKIrXleS7rb1zmW5zkx9oBfDOA4e32teO7Nq1y+VyPffccx0dHY2eCwAAwCaxo6Pja08//f0LF6bzeSL68M6dcxcvHm9r27FjR2dnITUpVkY9PkpPyJSmqFtLB5VMjVc3JhCRk6Juzp8sFFLThVP2IS8fHUvqO6sFVl0R2h2lCmXVGBWHoBrDasril0TTM4mscXl80bEkyRNptSRMpMtl9bmwljSfGZRSATsRFRJiA22nB2NMCvF1BTSX9Dti3tHKHRyDa1G4fhS59ezDGSJqbzUUmOfmHlJhz4je9oMDu2nqmnhtinYPPNNLFbrR3euiKIpXb8ys5czXm66urueee87tdu/atavRcwEAANhUmpub9+/Z8/LAwOkLFy5PTf3o0qUT7e379u3r6+ur9imxPiNkpXsbIowx5hkz2VNRkeCIeSVjfmkp6+K7PL70RDIecxpSa1FNfN1RKuTCykskhfhCldh0f4epGgOaSfpNU295Iq1l9lLGtIC+SlZ8B59yf+LugUrfwTc3Kd2YUbdwFO9lvHtdvHpjhnYPFG9JfKL3GX5gN01du36X7v5WuWbfw7JureptjjzPHz7QOXPj6vW7puNuJo899tiRI0f+5E/+ZP/+/Y2eCwAAwObU0tJysLfXPzDw5jvvDPX09PX19fX1dXd322y20q6F3b1Osdr9cP6wTOSKMCnEpyfkYmc5HhN11V6DQmlcjsdE0w5EXuNNeDWFJSK1rF4a31t+S18xCa4W2eVxBt3BktTaV7xF0biLwx5IJUip4o+EKFi8B5GS/kp/eNQakJQNHtpZOSwYE2ulxq5GLOTT+jTbQs2rvP7udVG8bmjRHutOzU1+IJp8P19582Txsf5k2dWm4TazgYGBRk8BAABg82tpabH39n63vX1ubq6jo6Orq8uQWItBBxckIiJfggXsRBEpJDg4TjnLh6RUwBCu0J0PSSk7UbGzL8HMc+CTTvUa3uerVFcOjBYH9SVYpIawZA+c9HFuLkpEJfFLo7nUnnxISlWP7PL4iIwbQkKjLt1Z95m4rHtBXMpMhZCUkqj4spEvwYjOlM+5noCBwtmAXfmzQRQLbxUfklKRxBhX8kTkeEx0nrS8bE0cY6z23ufPn+/p6bF8EmC56enpF198sdGzAAAAWL9Onz596tSpui4RhPBotQ2+0EhyWHBkTpZtzKmgwp6RWlRfOQ2+lxEAAAAAKtP/yMqy3823pdkDo6G0u9bfZXSnQ1Vuc1yF1e4JAQAAANgiUiVbPh4FV4SxyCMfdWOyB1KsxneIsdQaTQJ1awAAAAAAayC3BgAAAACwRt17Qqanp9diHgAAAAAAG119uXVuiX3W6chzZd/yCOuJjeV2zuA2BwAAAIBHrb49IYyxbfnZNZoKWGVbfraeb1YEAAAAAGvUl1tv7+5+PJddo6mAVR7PZXueqPzrrAAAAACwNurLrb/ylSPNCzPblubWaDawetvyc80Lnx89erTREwEAAADYcurLrdvb23t3P9nz8NdNLLdGE4LVaGK5ntlf7+3d09ra2ui5AAAAAGw5dX8H39GjRztaH9v14EYLqtfrzLb83K4HNzrbW48cOdLouQAAAABsRSv5fusTJ/7oC0/u6vn8o57Z37TlP29iOSLcOtcorInlWnMzO2Z/s+PBR3t37/qj48cbPSUAAIANbOr+/R8kEp/eu7e4uNjoucDGs8LfPP/KV448fPjw3Xffnb73m26ObE2ctdOC2uWX2BKjnie6jh79Y2wFAQAAWI3JbPan4+OvvPDC6z//+f/+xS8e6O1taWlp9KQ2FjksOILOBIu4lu3KcUJISgXsj2BWjxADAAAA2Hpee+21kpab9+7932+99ZAxxtj9XO4vE4nMRx/Nz8/XEVQK8XxIsmJ6y8cxjFUysBTiiQoNfDHvMwZN+IpnfInSQUvjG66uFFMK8Uoo5QpjD208pQdjCR9Z9HI9SuUrRw+/eQ4AAABAN7PZn46Pf/PYsTYiIuq02Uaef/71a9fkycmFhYVHP5/UsvVc+5CXYnHlx+LkeIy8Q9oFcjxGPp92VstfJW/M4U8qXcIC56ZEISNM0FiyylglASvEJEqeDVJoxEVEJGWchQzaGRwOy5T0q+NJobRbucI1EqLg2WoDbzzIrQEAAADojbfffkkQ2nQtPTbb1w8d+vH4eDar/bhH0s+p/EmSw0LhkRCWiYjCw0FRDDqUx8XTQlgmfW+1e7FFzU0FIRz2qw8FNaTJKAW65FrKlKbW3hGPU9TlwsoV/c7CYTxGIam4b8MVqbaHo2JAY0xKjkX5wjyKER2DPBHRWNTncanz5tMTcsnhZoHcGgAAAIC+LQjnLl6cyee1lg/v3Bm7fPl4R8fsrPqj1GGhWOmNuMgeSDGtMns2SUSBUXUfRSpg9zsyJ7XK7nD4jxxBtY5b2CzhL7QU67hiMONRYheVj1I81e8UMxIRJceizn5jaj1kd3l8pblwcizKDzqIiCgm6q7QiEGH9geAIyguG9AYU55I87oU33i12bwNh5sEcmsAAAAA2tHR8bWnn/7+hQvT+TwRfXjnzrmLF4+3te3YsaOzs1PpEyvsd1BpJWV3lMqqr2mKurUkVcxc5I3XEqULLfYhLx8dSxJRWZ9lRnF5fNGxJMkTabUkTKTLZbVcWMuYzwwWbx0sJMQGZXu2zQNShZgmkn5HzDtauYNjcJMVrpFbAwAAAFBzc/P+PXteHhg4feHC5ampH126dKK9fd++fX19fV1dXaaXCI6YVzKmoXqGu/QiK55Y1VFcHl96IhmPOQ2ptagmvu4oibG4rM5ECvG6ErHp/g5TJgG1Z2eMWSbpN0295Ym0ltlLGdMC+saF3BoAAACAiKilpeVgb69/YODNd94Z6unp6+vr6+vr7u622WxKB2/JjXeFDRByPCZqjYVc0ykaOpdvp9A6yPGYqKs7lzIdpcDlcQbdwZLU2le8RVE3rD2QSpC7sLd7JETB4j2IlPT7K9xSWDlgWUx7vy5jl8OCMbFWauxqxEI+rU+zNwfk1gAAAACqlpYWe2/vd5991uFwlCTWRBQYDaXdxdsPTzrVfRHDGadaUbYHTvqibo4TwnJEKnbmhPBIotC7sI9Z6+AIOhOV7yQ0GUXP5fFRyYYQ3cYSl8cnxm5pubBLGVMIy2QPpPQTdFOF5N4soOGPBF1M/Vk5HhN127eFsOyKJKj0+erT7E2CYww/qQgAAABbzunTp0+dOtWAgZN+bsxTy0+rbERyWHBkTtb67CrsGVnnqq8c1K0BAAAA1lzx2/vcVKVKvdHZldp+pQ0mRpw7Hapym+PGtMLfPAcAAACA2rkiq7mhcQOxB1IsUFtXxlJrO5dGQN0aAAAAAMAayK0BAAAAAKyB3BoAAAAAwBrIrQEAAAAArIHcGgAAAADAGsitAQAAAACsgdwaAAAAAMAayK0BAAAAAKyB3BoAAAAAwBrIrQEAAACKpu7f/0Ei8em9e4uLi42eC2w8yK0BAAAAVJPZ7E/ef/+VF144d+XKr27eXFhYaPCEkn6O4ziOa/A0Nh45LHCcP1lLV44TwrJlAyO3BtmEaQ4AAAk6SURBVAAAACAimsxmfzY+/q1jx3babIETJ97IZK5PTjY0vU763emQxBhjy3SUw4JF+eFK4hhG1z+Qw4IhcRU4jXGYwp8QHMdx/qRhDqVPzRCzUkA5PBx0JljEZRhB7aINpqbeLOEMDluWXSO3BgAAAKCb2exPx8e/eexYGxERddpsI88///q1a3ID02t5Ik3OfvsjHTOVCtQ9oH3IS7G4kpzK8Rh5h+zasc+nnSIiXvlLgTHJG3Ooqa0cFjg3JZgqQWNilbFKYpoFJEqeDVJoxJBYnyEfrx6rg0mhtFu5wjUSouDZmmrcy0NuDQAAAEBvvP32S4LQpmvpsdm+fujQj8fHs9lsoa1YX/Un1RKqvgIqCOGwX32oP9b1LJRXy64t53cERYq6OT2tOmuYSXg4KIpBB8cJYdlQNRbCsnEmxWErhFIvr/jUTGesS66ljCG19o54nKIuudau6HcWDuMxCknFCrMrEuErv00VY+oCUnIsyhcmQSSHhTODUmpkUHk4FvV5XOqk+fSEXHK4asitAQAAAOjbgnDu4sWZfF5r+fDOnbHLl493dMzOziotYaFYX424yO8IOksqoGIw41FOGo79jsxJrbw6HJbJ7NoyESnEa3VZtajrVOqrJTMJjKo9zYvOupnYA6nqoRSVnxpjCV/0TOkOCnu/U8xIRJQcixYq7WoF2+XxmSTXybEoP+ggIqKYWFabF4MO7a8JR1BXxq4cUxdQnkhrqbUcFoZp1Pxl0SZtOFwt5NYAAAAAtKOj42tPP/39Cxem83ki+vDOnXMXLx5va9uxY0dnZ6fSJ2bYaEBpXn1oH/Ly0bEkEfG6DrrjtFZ+dgRFMSOZXluFVkV2Ryk9IZfNZBn6WdUWqtpTcwya1JVdHl90LEnyRFqtChc3h+gTYS1pPjMoaQlvISfWT7j4F4UUKg5XHtM0oE48JqpdHEFRDDqEsPlL5Bi0qnCN3BoAAACAmpub9+/Z8/LAwOkLFy5PTf3o0qUT7e379u3r6+vr6upabXRD+TlSe1asEBwxr1SWaK6IhaGMXB5feiIZjzmLqXUhq3VHqZBcK6+DFOJ1VWLTPSOmTGKaBdTTyvRM+RAgFdCFm0hrab2UKa+erwxyawAAAAAiopaWloO9vf6BgTffeWeop6evr6+vr6+7u9tmsykdvMY73pyi+lCOx8RCudaU1nMF1xIRFbY4yPGYaDYTIiItuSwcaJ3rDlXv9IiIyOVxBt1BfWrtK96faNzCYQ+kEuQubNseCVGweBsiJf3+CvcyVo5pDGjvr5auKwV2NZy2f0WXZq8ScmsAAAAAVUtLi72397vPPutwOEoSayIKjIbShVsL/UmKSOpDR9CZqFqM1npq9xDWfi0RnXSqOx+GM07ebCZkD5z0Rd0cJ4Rl7YzWub5QxgnXMj2Vy+Mj/YYQ3VaT8v3RLmUEISyTPZDSvzxu8pgX1M1i3pJNApoMZxg5QaVPTZ9mrxa3/DcmAgAAAGw6p0+fPnXqVKNnAWtCDguOzMlad98k/ZW2a5uqvnJQtwYAAABoOP2vp5R8Rx7Uza5U42v8XUZ3OjRa/7d6V9BsURwAAAAAWDFXhLFIoyexidgDKRZYvhsREWMpCwdG3RoAAAAAwBrIrQEAAAAArIF7GQEAAGArOn/+fKOnABvViy++WOkU9lsDAADAFtXT09PoKcDGMz09XeUs9oQAAAAAAFgDuTUAAAAAgDWQWwMAAAAAWAO5NQAAAACANZBbAwAAAKzE9oM8z/MHtzd6HrA6mUwmnU4vLS1ZEg3fEwIAAABARLT9ID+wu/Bg5ob4wWQjZwOPysLCwvj4uCRJhw4d2r9//yqjoW4NAAAAQER097ooXpsiIpq6hsR6q7l///5bb72VSCRu3769mjioWwMAAACYUerYMzMznZ2dRDRz4+oHk3Ml5e2SzoqZG1c/mGxTrr5x9YPJudbeZw4f6KSZG+Jv2ku6zZlcOvcInhyYun37djKZfOqpp7785S93dHSsIAJyawAAAIAqPpPED9oO8gO7D+zdPnmdDg7sJpq6Jl6/W8yJW3ufGditpsXbD/IDBxy9dz+4Ll4j5fA37Qc6aebGVYmeOVzaTSKHloI3+IkCERExxj766KNPP/3U5XJ1dXXVezlyawAAAIDKHs7NEbUVHm3v2U1EU9N39V1at+/sJKIDh/kDaktnexvR3N3rV2+0Hz5weIBo6toHk9T7jEm3h0REnQcO8weQYa8LHMehbg0AAADQYGaZcVt757Ld7opzagG888Bhvv2aeP1u6TXwqOzatevIkSO7du1acQTcywgAAABQq9mHM0TU3tqqb5ybe0hEnQf2lnwd3/aDA7tp6pp4bYp2DzzTSxW60d3roiiKV2/MrOXMobqurq7nnnvO7XavJrEm1K0BAAAAFMX907sH+PYb4m9M+sxNSjd2Hj6g29dBRHT3unj14TOHDwzw6j2JMzcyn+0cPNBJU9eu3yWavTGz+8CBw/tuiFdvGLtdlchx+EChuD1z4yqK1o/cY489duTIkS9+8YtNTRYUnTnG2OqjAAAAAGws58+f7+npafQsYOOZnp5+8cUXK53FnhAAAAAAAGsgtwYAAAAAsAZyawAAAAAAayC3BgAAAACwBnJrAAAAAABr4Dv4AAAAYIuanp5u9BRgs0FuDQAAAFtRbol91unIc7ZGTwQ2EhvL7ZyRq3TAnhAAAADYihhj2/KzjZ4FbDDb8rPVfxsGuTUAAABsRdu7ux/PZRs9C9hgHs9le57oqtIBuTUAAABsRV/5ypHmhZltS3ONnghsGNvyc80Lnx89erRKH+TWAAAAsBW1t7f37n6y5+Gvm1iu0XOBDaCJ5Xpmf723d09ra2u1bo9sQgAAAADrytGjRztaH9v14EYLqtdQ1bb83K4HNzrbW48cOVK9J8eq78cGAAAA2NTeeefdyU8/XdjWMdvyxHxT6xJnI+IaPSlYD1gTy7fkZx9fzG5b/PwLvXuWTawJuTUAAADAw4cP33333el795s4sjUhsQZVfoktMep5ouvo0aPVt4JokFsDAAAAAFgD+60BAAAAAKyB3BoAAAAAwBrIrQEAAAAArIHcGgAAAADAGsitAQAAAACsgdwaAAAAAMAayK0BAAAAAKyB3BoAAAAAwBr/C/r9XEaV4zI0AAAAAElFTkSuQmCC;" vertex="1" parent="1">
                    <mxGeometry width="969" height="524" as="geometry"/>
                </mxCell>
            </root>
        </mxGraphModel>
    </diagram>
</mxfile>